<?xml version="1.0" encoding="UTF-8"?>
<svg width="515px" height="391px" viewBox="0 0 515 391" version="1.1" xmlns="http://www.w3.org/2000/svg" xmlns:xlink="http://www.w3.org/1999/xlink">
    <!-- Generator: Sketch 53.2 (72643) - https://sketchapp.com -->
    <title>code_review</title>
    <desc>Created with Sketch.</desc>
    <g id="Page-1" stroke="none" stroke-width="1" fill="none" fill-rule="evenodd">
        <g id="Artboard-Copy" transform="translate(-820.000000, -677.000000)" fill-rule="nonzero">
            <g id="code_review" transform="translate(820.000000, 677.000000)">
                <path d="M248.976634,345.871524 C137.931618,337.431489 5.50527199,251.496541 12.2472943,163.012454 C18.9893166,74.5283658 147.24566,-7.84292027 258.290671,0.597101503 C369.335683,9.03712328 433.256991,174.398993 426.514969,262.883068 C419.772946,351.367142 360.021646,354.31156 248.976634,345.871524 Z" id="Path" fill="#F2F2F2"></path>
                <ellipse id="Oval" fill="#3F3D56" cx="259.5" cy="344.5" rx="231.5" ry="14.5"></ellipse>
                <ellipse id="Oval" fill="#000000" opacity="0.1" cx="258.5" cy="345" rx="196.5" ry="9"></ellipse>
                <ellipse id="Oval" fill="#3F3D56" cx="97" cy="382.5" rx="97" ry="8.5"></ellipse>
                <ellipse id="Oval" fill="#000000" opacity="0.1" cx="97.5" cy="382" rx="82.5" ry="5"></ellipse>
                <rect id="Rectangle" fill="#3F3D56" x="91" y="75" width="344" height="269"></rect>
                <path d="M257.98319,109.999999 L174.021105,109.999999 C173.656556,110.000376 173.319369,109.905159 173.136873,109.750304 C172.954376,109.595449 172.954376,109.404551 173.136873,109.249696 C173.319369,109.094841 173.656556,108.999624 174.021105,109.000001 L257.98319,109.000001 C258.545105,109.000582 259,109.224269 259,109.5 C259,109.775731 258.545105,109.999418 257.98319,109.999999 L257.98319,109.999999 Z" id="Path" fill="#F2F2F2"></path>
                <path d="M349.966565,123 L216.033435,123 C215.462685,123 215,122.776142 215,122.5 C215,122.223858 215.462685,122 216.033435,122 L349.966565,122 C350.335775,122 350.67694,122.095299 350.861546,122.25 C351.046151,122.404701 351.046151,122.595299 350.861546,122.75 C350.67694,122.904701 350.335775,123 349.966565,123 Z" id="Path" fill="#F2F2F2"></path>
                <path d="M257.981042,133 L174.018958,133 C173.456203,133 173,132.776142 173,132.5 C173,132.223858 173.456203,132 174.018958,132 L257.981042,132 C258.543797,132 259,132.223858 259,132.5 C259,132.776142 258.543797,133 257.981042,133 L257.981042,133 Z" id="Path" fill="#F2F2F2"></path>
                <path d="M349.981042,133 L266.018958,133 C265.456203,133 265,132.776142 265,132.5 C265,132.223858 265.456203,132 266.018958,132 L349.981042,132 C350.543797,132 351,132.223858 351,132.5 C351,132.776142 350.543797,133 349.981042,133 L349.981042,133 Z" id="Path" fill="#F2F2F2"></path>
                <path d="M257.981042,143 L174.018958,143 C173.456203,143 173,142.776142 173,142.5 C173,142.223858 173.456203,142 174.018958,142 L257.981042,142 C258.543797,142 259,142.223858 259,142.5 C259,142.776142 258.543797,143 257.981042,143 Z" id="Path" fill="#F2F2F2"></path>
                <path d="M258.981042,156 L175.018958,156 C174.456203,156 174,155.776142 174,155.5 C174,155.223858 174.456203,155 175.018958,155 L258.981042,155 C259.543797,155 260,155.223858 260,155.5 C260,155.776142 259.543797,156 258.981042,156 L258.981042,156 Z" id="Path" fill="#F2F2F2"></path>
                <path d="M297.023437,110 L273.976563,110 C273.437222,110 273,109.776142 273,109.5 C273,109.223858 273.437222,109 273.976563,109 L297.023437,109 C297.562778,109 298,109.223858 298,109.5 C298,109.776142 297.562778,110 297.023437,110 L297.023437,110 Z" id="Path" fill="#F2F2F2"></path>
                <path d="M297.023437,143 L273.976563,143 C273.437222,143 273,142.776142 273,142.5 C273,142.223858 273.437222,142 273.976563,142 L297.023437,142 C297.562778,142 298,142.223858 298,142.5 C298,142.776142 297.562778,143 297.023437,143 L297.023437,143 Z" id="Path" fill="#F2F2F2"></path>
                <path d="M297.02154,155.999999 L273.97846,155.999999 C273.629136,156.000376 273.306031,155.905159 273.131156,155.750304 C272.956281,155.595449 272.956281,155.404551 273.131156,155.249696 C273.306031,155.094841 273.629136,154.999624 273.97846,155.000001 L297.02154,155.000001 C297.370864,154.999624 297.693969,155.094841 297.868844,155.249696 C298.043719,155.404551 298.043719,155.595449 297.868844,155.750304 C297.693969,155.905159 297.370864,156.000376 297.02154,155.999999 L297.02154,155.999999 Z" id="Path" fill="#F2F2F2"></path>
                <path d="M338.021379,155.999999 L314.974505,155.999999 C314.435969,155.999418 314,155.775731 314,155.5 C314,155.224269 314.435969,155.000582 314.974505,155.000001 L338.021379,155.000001 C338.370761,154.999624 338.693918,155.094841 338.868822,155.249696 C339.043726,155.404551 339.043726,155.595449 338.868822,155.750304 C338.693918,155.905159 338.370761,156.000376 338.021379,155.999999 Z" id="Path" fill="#F2F2F2"></path>
                <path d="M197.023437,123 L173.976563,123 C173.437222,123 173,122.776142 173,122.5 C173,122.223858 173.437222,122 173.976563,122 L197.023437,122 C197.562778,122 198,122.223858 198,122.5 C198,122.776142 197.562778,123 197.023437,123 Z" id="Path" fill="#F2F2F2"></path>
                <path d="M257.981042,277 L174.018958,277 C173.456203,277 173,276.776142 173,276.5 C173,276.223858 173.456203,276 174.018958,276 L257.981042,276 C258.543797,276 259,276.223858 259,276.5 C259,276.776142 258.543797,277 257.981042,277 Z" id="Path" fill="#F2F2F2"></path>
                <path d="M255.981042,300 L172.018958,300 C171.456203,300 171,299.776142 171,299.5 C171,299.223858 171.456203,299 172.018958,299 L255.981042,299 C256.543797,299 257,299.223858 257,299.5 C257,299.776142 256.543797,300 255.981042,300 Z" id="Path" fill="#F2F2F2"></path>
                <path d="M255.978946,311.999999 L172.021054,311.999999 C171.656523,312.000376 171.319353,311.905159 171.136866,311.750304 C170.954378,311.595449 170.954378,311.404551 171.136866,311.249696 C171.319353,311.094841 171.656523,310.999624 172.021054,311.000001 L255.978946,311.000001 C256.343477,310.999624 256.680647,311.094841 256.863134,311.249696 C257.045622,311.404551 257.045622,311.595449 256.863134,311.750304 C256.680647,311.905159 256.343477,312.000376 255.978946,311.999999 Z" id="Path" fill="#F2F2F2"></path>
                <path d="M293.023437,300 L269.976563,300 C269.437222,300 269,299.776142 269,299.5 C269,299.223858 269.437222,299 269.976563,299 L293.023437,299 C293.562778,299 294,299.223858 294,299.5 C294,299.776142 293.562778,300 293.023437,300 Z" id="Path" fill="#F2F2F2"></path>
                <path d="M293.023439,312 L269.976561,312 C269.437221,312 269,311.776142 269,311.5 C269,311.223858 269.437221,311 269.976561,311 L293.023439,311 C293.562779,311 294,311.223858 294,311.5 C294,311.776142 293.562779,312 293.023439,312 L293.023439,312 Z" id="Path" fill="#F2F2F2"></path>
                <path d="M334.023437,300 L310.976563,300 C310.437222,300 310,299.776142 310,299.5 C310,299.223858 310.437222,299 310.976563,299 L334.023437,299 C334.562778,299 335,299.223858 335,299.5 C335,299.776142 334.562778,300 334.023437,300 L334.023437,300 Z" id="Path" fill="#F2F2F2"></path>
                <path d="M349.966565,289 L216.033435,289 C215.462685,289 215,288.776142 215,288.5 C215,288.223858 215.462685,288 216.033435,288 L349.966565,288 C350.537315,288 351,288.223858 351,288.5 C351,288.776142 350.537315,289 349.966565,289 L349.966565,289 Z" id="Path" fill="#F2F2F2"></path>
                <path d="M197.023437,289 L173.976563,289 C173.437222,289 173,288.776142 173,288.5 C173,288.223858 173.437222,288 173.976563,288 L197.023437,288 C197.562778,288 198,288.223858 198,288.5 C198,288.776142 197.562778,289 197.023437,289 L197.023437,289 Z" id="Path" fill="#F2F2F2"></path>
                <path d="M349.966584,321.999999 L216.035597,321.999999 C215.665874,322.000376 215.323902,321.905159 215.138815,321.750304 C214.953728,321.595449 214.953728,321.404551 215.138815,321.249696 C215.323902,321.094841 215.665874,320.999624 216.035597,321.000001 L349.966584,321.000001 C350.537324,321.000001 351,321.223858 351,321.5 C351,321.776142 350.537324,321.999999 349.966584,321.999999 L349.966584,321.999999 Z" id="Path" fill="#F2F2F2"></path>
                <path d="M197.02154,321.999999 L173.97846,321.999999 C173.629136,322.000376 173.306031,321.905159 173.131156,321.750304 C172.956281,321.595449 172.956281,321.404551 173.131156,321.249696 C173.306031,321.094841 173.629136,320.999624 173.97846,321.000001 L197.02154,321.000001 C197.370864,320.999624 197.693969,321.094841 197.868844,321.249696 C198.043719,321.404551 198.043719,321.595449 197.868844,321.750304 C197.693969,321.905159 197.370864,322.000376 197.02154,321.999999 L197.02154,321.999999 Z" id="Path" fill="#F2F2F2"></path>
                <polygon id="Path" fill="#2E855A" points="237.299732 184 204 216.5 237.299732 249 244.79201 241.595052 219.609451 216.705566 245 191.610514"></polygon>
                <polygon id="Path" fill="#2E855A" points="286.700268 184 320 216.5 286.700268 249 279.20799 241.595052 304.391011 216.705566 279 191.610514"></polygon>
                <circle id="Oval" fill="#2E855A" cx="98.5" cy="80.5" r="4.5"></circle>
                <circle id="Oval" fill="#2E855A" cx="108.5" cy="80.5" r="4.5"></circle>
                <circle id="Oval" fill="#2E855A" cx="121.5" cy="80.5" r="4.5"></circle>
                <rect id="Rectangle" fill="#000000" opacity="0.1" x="91" y="88" width="344" height="1"></rect>
                <path d="M515,277.135984 C515,306.683211 497.762964,317 476.5,317 C455.237036,317 438,306.683211 438,277.135984 C438,247.588756 476.5,210 476.5,210 C476.5,210 515,247.588756 515,277.135984 Z" id="Path" fill="#F2F2F2"></path>
                <polygon id="Path" fill="#3F3D56" points="475.340762 312.989495 475.731572 288.620608 492 258.473066 475.792875 284.798002 475.968672 273.840656 487.180459 252.029609 476.015101 270.941283 476.015101 270.941283 476.331084 251.234222 488.337113 233.86949 476.380668 248.135318 476.578101 212 475.337155 259.836913 475.439027 257.863513 463.23241 238.937229 475.243397 261.651875 474.106126 283.661083 474.072319 283.076642 460 263.159549 474.029497 285.140448 473.887507 287.892797 473.861813 287.934347 473.873533 288.160361 470.987759 344 474.843121 344 475.305602 315.157861 489.301292 293.230383"></polygon>
                <path d="M56.8385024,343.677423 C55.6908657,344.336947 54.4802299,344.872182 53.2259156,345.274584 C50.9823839,345.907236 48.5844546,345.675136 46.3183278,346.215197 C45.3905197,346.436312 44.38072,346.898817 44.0856585,347.833393 C43.8692271,348.518905 44.1046799,349.259165 44.3301494,349.941567 C46.8341718,357.520278 48.3434402,365.567043 52.3367997,372.43182 C54.015061,375.31506 56.0980851,377.925566 58.5179563,380.178225 C59.4257888,381.022869 60.4545746,381.849153 61.6699654,381.981672 C62.8100353,382.105982 63.9274817,381.591554 64.5997068,380.632935 C65.271932,379.674316 65.3963261,378.417831 64.9258457,377.33866 C64.5677874,376.517355 63.9022106,375.881191 63.4729568,375.097096 C63.0074899,374.098298 62.7345152,373.015632 62.6692164,371.909319 C62.2746879,368.667916 61.894622,365.280127 62.9825969,362.21236 C63.7123102,360.154788 65.0508631,358.400668 66.1659696,356.536276 C67.2810762,354.671885 68.2075723,352.536273 67.9594415,350.360186 C67.790113,348.875175 67.0883752,347.516171 66.3470838,346.231545 C65.6043126,344.944388 64.1362896,341.485308 62.6440194,341.055763 C61.0949766,340.609885 58.1894329,342.962718 56.8385024,343.677423 Z" id="Path" fill="#2F2E41"></path>
                <path d="M98.1836399,369.760364 C98.2084042,370.472951 98.1033488,371.184255 97.8730762,371.863112 C97.3778488,373.100542 96.1493612,373.948477 95.5147054,375.127522 C94.6320098,376.767341 95.0320886,378.749472 95.6168967,380.504597 C95.9835315,381.604938 96.4644251,382.749893 97.4489983,383.430399 C98.2909933,383.924288 99.2484827,384.214526 100.237019,384.275516 C108.682928,385.381631 117.262477,384.746997 125.785369,384.97875 C127.338778,385.020988 128.983415,385.072457 130.339428,384.354086 C131.69544,383.635715 132.533758,381.829712 131.611498,380.646094 C130.783337,379.58325 129.145864,379.593145 127.75195,379.530509 C124.122157,379.356004 120.665458,378.008553 117.958945,375.713111 C117.425178,375.281603 116.962239,374.777336 116.585334,374.216876 C116.295473,373.719421 116.054945,373.19762 115.866834,372.658165 C114.672057,369.595639 113.250675,366.616602 111.613253,363.743195 C111.15492,362.938965 110.635966,362.10143 109.784176,361.671022 C109.160636,361.402763 108.483968,361.262966 107.799015,361.260895 C105.674781,361.130618 100.174027,360.446505 98.5314126,362.009607 C97.0136865,363.45389 98.2172901,367.925947 98.1836399,369.760364 Z" id="Path" fill="#2F2E41"></path>
                <circle id="Oval" fill="#FBBEBE" cx="111.5" cy="171.5" r="12.5"></circle>
                <path d="M98.9977198,184.100739 C98.2236244,186.195159 96.9105927,188.162165 95,189.289218 L113,193 C112.347131,190.344953 112.261109,187.579848 112.747656,184.888597 C112.926285,184.237171 112.963025,183.554347 112.855343,182.887188 C112.516881,181.567383 111.046809,180.932112 109.731468,180.629082 C106.446268,179.872228 103.541068,179.466362 100.488193,178 C99.5550403,179.614455 99.6856972,182.239328 98.9977198,184.100739 Z" id="Path" fill="#FBBEBE"></path>
                <path d="M93.9342826,183.295039 C98.0089679,181.458595 102.703481,181.580768 106.676314,183.626645 C109.073166,184.884661 111.057798,186.783577 113.007652,188.657076 C114.804974,190.384019 116.722265,192.361385 116.849829,194.845462 C116.911619,196.048854 116.534506,197.225762 116.344097,198.415707 C115.64265,203.459823 118.221681,208.393881 122.7727,210.714549 C124.257903,213.17873 124.564428,216.164204 124.587208,219.038196 C124.673513,229.927525 121.224017,240.951183 123.686639,251.561039 C124.264826,254.052067 125.161583,256.464836 125.661078,258.97269 C126.308048,262.221007 126.276111,265.561133 126.614597,268.855533 C126.98168,272.423029 127.782686,275.932875 129,279.307889 C128.186395,280.596669 126.493139,281.090854 124.968231,280.986476 C123.443322,280.882099 122.017418,280.223017 120.656724,279.52951 C114.06798,276.171412 108.03316,271.743357 101.209035,268.889401 C96.6942524,267.001246 91.8845474,265.825138 87.5046864,263.644407 C83.1248254,261.463676 79.0514566,258.002743 77.7122686,253.311682 C77.1332092,251.283303 77.0975627,249.146123 77.0659562,247.037584 C76.9328402,238.156515 76.8091573,229.178498 78.7500821,220.509357 C80.4617325,212.864302 83.7611497,205.550742 84.4809526,197.750799 C84.7152514,195.211879 84.7202524,192.493933 86.1445238,190.375376 C88.1576374,187.380921 92.5043057,186.605423 93.9342826,183.295039 Z" id="Path" fill="#2F2E41"></path>
                <path d="M103.109099,171.592809 C103.874917,170.555251 105.351916,170.413756 106.575367,170.720668 C107.798819,171.027579 108.926915,171.682585 110.162526,171.931436 C110.730439,172.098909 111.340002,172.009974 111.841531,171.686471 C112.273468,171.244616 112.531749,170.651666 112.566136,170.022954 C112.998942,167.347989 113.100073,164.626449 112.867059,161.924787 C112.802718,161.545773 112.827144,161.15624 112.938274,160.789099 C113.244179,160.023382 114.17746,159.841127 114.939708,159.595486 C117.526759,158.687134 119.191236,156.071786 118.982366,153.243363 C118.963305,152.583892 118.696591,151.958347 118.239266,151.500511 C117.712127,151.054309 116.974316,151.026893 116.294349,151.021218 C112.800785,150.992075 109.307151,150.992953 105.813447,151.023851 C104.5204,151.035289 103.162435,151.068357 102.041493,151.738017 C101.212727,152.233133 100.596421,153.030053 99.8524027,153.653725 C97.9119166,155.280354 95.2872114,155.611326 92.9263968,156.445004 C91.7739425,156.785911 90.7274352,157.434168 89.8908767,158.325353 C89.1057715,159.257059 88.7283011,160.642497 89.2213787,161.769812 C89.4745131,162.23968 89.7572385,162.691672 90.0677098,163.12284 C91.4602662,165.435814 90.5331975,168.43592 90.741146,171.155422 C91.0008158,174.55133 95.8388012,180.060164 99.1193643,180.863756 C104.415616,182.1611 101.355839,173.821966 103.109099,171.592809 Z" id="Path" fill="#2F2E41"></path>
                <path d="M96.6064154,319.413213 C96.9530814,321.865534 97.3976636,324.326315 97.2788158,326.799759 C97.1128896,330.252961 95.8555647,333.580133 95.6231265,337.029569 C95.449519,339.605924 95.8510471,342.210139 95.4898235,344.767318 C95.2585252,346.404716 94.7194417,347.983125 94.3857189,349.603095 C93.3177821,354.937216 94.4891525,360.472082 97.6299296,364.93238 C97.8582849,365.310156 98.1829372,365.621801 98.5713089,365.836042 C98.9438183,365.972718 99.3425185,366.024965 99.7380964,365.988941 C103.661686,365.909854 107.574806,365.557614 111.448509,364.934827 C111.73207,364.923309 112.000718,364.805905 112.200453,364.606213 C112.287803,364.473816 112.343642,364.323493 112.363756,364.166594 C113.082002,360.50955 111.444071,356.842682 111.027562,353.139994 C110.582817,349.186332 111.540596,345.224389 112.49129,341.359314 C112.922385,339.452706 113.46096,337.571512 114.104483,335.724568 C114.564009,334.481583 115.118976,333.272625 115.517257,332.009074 C116.08135,330.024067 116.424879,327.983976 116.541734,325.925087 C116.818281,322.676254 116.964797,319.419979 116.981282,316.156265 C117.075223,313.063507 116.815338,309.970158 116.206592,306.935316 C115.332856,303.093024 113.543603,299.525075 111.770024,296 C110.821697,296.22512 109.931401,296.644235 109.156332,297.230418 C106.870819,298.696583 104.484461,300.00244 102.014767,301.138409 C100.355435,301.901872 97.1194449,302.444097 96.066313,304.034999 C95.0277479,305.603901 95.6978361,308.804833 95.7771843,310.535154 C95.9133563,313.505138 96.1897667,316.464491 96.6064154,319.413213 Z" id="Path" fill="#2F2E41"></path>
                <path d="M96.6064154,319.413213 C96.9530814,321.865534 97.3976636,324.326315 97.2788158,326.799759 C97.1128896,330.252961 95.8555647,333.580133 95.6231265,337.029569 C95.449519,339.605924 95.8510471,342.210139 95.4898235,344.767318 C95.2585252,346.404716 94.7194417,347.983125 94.3857189,349.603095 C93.3177821,354.937216 94.4891525,360.472082 97.6299296,364.93238 C97.8582849,365.310156 98.1829372,365.621801 98.5713089,365.836042 C98.9438183,365.972718 99.3425185,366.024965 99.7380964,365.988941 C103.661686,365.909854 107.574806,365.557614 111.448509,364.934827 C111.73207,364.923309 112.000718,364.805905 112.200453,364.606213 C112.287803,364.473816 112.343642,364.323493 112.363756,364.166594 C113.082002,360.50955 111.444071,356.842682 111.027562,353.139994 C110.582817,349.186332 111.540596,345.224389 112.49129,341.359314 C112.922385,339.452706 113.46096,337.571512 114.104483,335.724568 C114.564009,334.481583 115.118976,333.272625 115.517257,332.009074 C116.08135,330.024067 116.424879,327.983976 116.541734,325.925087 C116.818281,322.676254 116.964797,319.419979 116.981282,316.156265 C117.075223,313.063507 116.815338,309.970158 116.206592,306.935316 C115.332856,303.093024 113.543603,299.525075 111.770024,296 C110.821697,296.22512 109.931401,296.644235 109.156332,297.230418 C106.870819,298.696583 104.484461,300.00244 102.014767,301.138409 C100.355435,301.901872 97.1194449,302.444097 96.066313,304.034999 C95.0277479,305.603901 95.6978361,308.804833 95.7771843,310.535154 C95.9133563,313.505138 96.1897667,316.464491 96.6064154,319.413213 Z" id="Path" fill="#000000" opacity="0.1"></path>
                <path d="M78.3084551,267 C76.5579597,271.701246 79.1310573,276.781394 81.3665539,281.2734 C86.8740434,292.340177 90.6985641,304.149008 94.5026716,315.907248 C94.7876225,316.78801 95.072346,317.748907 94.7546759,318.61846 C94.480345,319.236283 94.0350067,319.76321 93.4709477,320.137376 C90.8480024,322.124696 87.508169,322.832455 84.3836673,323.872175 C81.3640901,324.877416 78.4720533,326.229795 75.7659203,327.902021 C73.5017898,329.301524 71.3808058,330.917098 69.2639845,332.529789 L62.5254305,337.663551 C62.0891587,337.957643 61.7079465,338.325748 61.3991021,338.751153 C60.7491764,339.768291 61.0153885,341.096165 61.3389683,342.25836 C62.1958871,345.335606 63.2991929,348.339225 64.6382438,351.240247 C64.8585628,351.876148 65.2780408,352.424519 65.8347329,352.804381 C66.8865197,353.368204 68.1729866,352.620586 68.9761538,351.739215 C69.779321,350.857845 70.4740035,349.761067 71.6061916,349.382695 C72.7370512,349.004768 73.9817002,349.462444 75.1627532,349.297056 C77.0728913,349.029564 78.3410515,347.274298 79.7179329,345.926811 C85.3434017,340.421443 94.7355047,340.82084 100.923742,335.953235 C101.818269,335.154753 102.765287,334.416791 103.758466,333.744282 C104.804616,333.127417 105.990996,332.788854 107.076408,332.243641 C110.37773,330.585355 112.45317,327.157049 113.564945,323.640689 C114.67672,320.124329 114.99379,316.412402 115.792717,312.812445 C116.205738,310.95139 116.749412,309.110371 116.93314,307.213083 C117.05131,305.448402 117.012781,303.676753 116.818004,301.918844 L114.585105,274.36532 C114.403311,272.121977 114.221213,269.876015 113.868239,267.653066 C107.23676,267.889548 100.61003,268.155683 93.9747742,268.233948 C88.6949498,268.296197 83.3181096,268.664381 78.3084551,267 Z" id="Path" fill="#2F2E41"></path>
                <path d="M76.625781,272.736025 C77.504868,274.303281 79.6445086,274.270907 81.1178752,273.411657 C82.5912419,272.552407 83.7358817,271.108861 85.212716,270.256959 C87.1972359,269.112202 89.5455817,269.155251 91.7818149,269.225267 C95.3222099,269.336115 98.9060708,269.454098 102.3124,270.529647 C105.835586,271.642099 109.265397,273.783966 112.908373,273.356672 C113.542291,273.282318 114.235449,273.08079 114.580442,272.486574 C114.782599,272.0561 114.877686,271.573708 114.855927,271.088995 L114.975046,267.56082 C115.048059,266.95063 114.960042,266.330059 114.721639,265.774146 C114.415901,265.311526 113.996855,264.955852 113.51423,264.749335 C108.328996,261.966754 102.41563,261.448641 96.6581632,261.229996 C93.7315098,261.118853 90.8036235,261.07314 87.8745042,261.092856 C85.3888918,261.109657 82.4049121,260.710982 79.9883287,261.447231 C76.7451179,262.435342 74.9803998,269.802613 76.625781,272.736025 Z" id="Path" fill="#2F2E41"></path>
                <path d="M109.577348,188.459023 C102.448309,188.401512 95.9879141,184.116059 88.8595142,184.011662 C87.9982745,183.957407 87.1353636,184.093003 86.3438852,184.406962 C85.3505704,184.862661 84.6974976,185.743807 83.942939,186.487967 C81.835189,188.566661 78.7829567,189.676547 76.6175854,191.705504 C74.5872453,193.607922 73.4580828,196.442323 74.259664,198.992869 C75.0612451,201.543415 78.0865607,203.499813 80.9207303,202.886654 C82.0625947,199.520625 84.4192902,196.604477 87.6087787,194.610939 C89.2683337,193.641504 91.0173306,192.805365 92.8359968,192.111973 C96.0398396,190.790001 99.6224474,189.44276 102.967251,190.433711 C104.200789,190.857942 105.363933,191.435591 106.423588,192.150222 L112,195.561712 C111.35023,193.227624 110.765951,190.609923 109.577348,188.459023 Z" id="Path" fill="#2E855A"></path>
                <path d="M80.6817382,200.135445 C79.7577483,201.285755 81.0887982,202.952468 80.8850679,204.41264 C80.7497181,205.382805 79.9496903,206.123574 79.616534,207.044947 C79.271439,207.99933 79.4544385,209.056505 79.32356,210.062657 C79.1922202,210.794321 78.9979743,211.513336 78.7429758,212.21173 C78.1567789,214.298074 77.7476095,216.429959 77.5198014,218.584804 L76.3018541,227.661377 C76.0905031,229.027352 75.9618682,230.404801 75.9166496,231.786226 C75.9780471,232.818708 75.9088839,233.854796 75.7107929,234.870027 C75.4410951,235.861947 74.8439189,236.729707 74.4421861,237.676062 C74.0404534,238.622417 73.8542393,239.767138 74.3969405,240.640624 C72.5795404,242.151251 72.0391522,245.118016 73.3099354,247.108782 C73.5518491,247.418951 73.7410704,247.766667 73.8700437,248.138044 C73.9402804,248.657191 73.8544248,249.185459 73.6233671,249.655841 L72.3918511,252.930428 C72.0766209,253.768626 71.976923,255.044741 72.8533315,255.236074 C72.1273958,255.988424 71.5618264,256.879824 71.1907917,257.85642 C70.8250456,258.852795 70.9918501,259.966372 71.6335811,260.812457 C71.9395575,261.080351 72.2000916,261.395877 72.4050874,261.746807 C72.5255304,262.235703 72.494433,262.749566 72.3159075,263.220443 C71.9437013,264.665904 72.1864073,266.200599 72.9866004,267.461415 C73.8248335,268.718885 75.3291411,269.362365 76.819731,269.101069 C79.2832411,268.54658 81.4969419,267.671259 83.9808688,268.126093 C89.3291096,269.105422 94.6945571,270.088982 99.8745055,271.739355 C105.786438,273.622959 111.510804,276.385174 117.689466,276.964977 C118.095974,277.047972 118.518835,276.982334 118.880877,276.780043 C119.195704,276.482329 119.391485,276.080656 119.431819,275.649703 C120.068363,272.671243 120.704914,269.692783 121.341473,266.714326 C122.111022,263.412826 122.697046,260.071387 123.096862,256.705311 C123.314243,254.532787 123.376208,252.348117 123.438037,250.16566 L123.93017,232.794073 C124.160757,230.233877 123.818613,227.654531 122.928456,225.242386 L120.097485,216.223633 C118.481935,211.076892 114.775776,206.512876 113.456232,201.282756 C112.62109,197.972567 112.004144,194.420229 109.764512,191.840199 C106.571609,188.161996 101.047462,187.58989 96.2123584,188.222293 C94.0280441,188.507991 91.8250297,189.001025 89.9356109,190.131506 C87.7508504,191.438687 86.1413559,193.497861 84.5842465,195.509733 C83.3009738,197.167803 81.9948028,198.500762 80.6817382,200.135445 Z" id="Path" fill="#2E855A"></path>
                <path d="M91.4726901,252.304397 C91.8897669,254.024092 92.7656803,255.609747 93.3018198,257.298996 C94.2001146,260.129225 94.1238699,263.177369 95.0204057,266.008109 C95.3967049,267.196245 95.9419067,268.33701 96.2119905,269.551267 C96.8416793,272.382312 95.9222806,275.311116 94.7801971,277.991546 C93.6381137,280.671976 92.2472219,283.31488 91.8764715,286.18743 C91.6153402,288.210684 91.9904668,290.495201 93.6213097,291.808206 C95.3144298,293.17135 97.7749073,293.079037 99.9800932,292.897671 C100.771776,292.876502 101.553218,292.720907 102.287938,292.438149 C103.97437,291.675246 104.68467,289.766982 105.078879,288.02331 C106.399972,282.179804 106.022557,276.122977 105.63864,270.155765 L104.63463,254.550345 C104.441339,251.54597 104.234252,248.479387 103.266091,245.594653 C102.913909,244.545302 102.300061,242.424803 101.297682,241.754764 C100.304889,241.091129 97.4697425,241.061572 96.2405072,241.006374 C90.4733807,240.747392 90.5380319,248.444556 91.4726901,252.304397 Z" id="Path" fill="#FBBEBE"></path>
                <path d="M96.9948095,194.328565 C95.8730824,193.743305 94.4598231,193.995635 93.3755517,194.647228 C92.3286393,195.361483 91.4117185,196.24848 90.6642604,197.270035 C88.2403472,200.217942 85.6743838,203.600512 86.0338811,207.394508 C86.1686716,208.817022 86.7153474,210.163284 87.085986,211.543581 C88.711081,217.595862 86.914035,223.996847 87.1202273,230.258603 C87.2393727,233.87683 88.0295739,237.435762 88.816538,240.970005 C88.9771434,241.691282 89.2343799,242.526248 89.9346875,242.769124 C90.4607603,242.951575 91.028997,242.717008 91.5496626,242.519757 C95.486227,241.070451 99.8846249,241.622791 103.337135,244 C104.637869,243.308497 104.150468,241.121873 103.85885,239.681961 C102.992412,235.403783 104.168565,230.990334 105.596961,226.864485 C107.025357,222.738635 108.734421,218.617997 108.971082,214.259961 C109.239223,209.322076 107.596004,204.502448 105.974687,199.828636 C105.620797,198.80846 105.234045,197.738688 104.41353,197.033876 C103.71109,196.513443 102.906067,196.147004 102.051362,195.95864 C100.32925,195.451497 98.5856631,195.158591 96.9948095,194.328565 Z" id="Path" fill="#2F2E41"></path>
            </g>
        </g>
    </g>
</svg>