<svg width="285" height="154" xmlns="http://www.w3.org/2000/svg"><g fill-rule="nonzero" fill="none"><path d="M285 98.908a45.505 45.505 0 0 1-1.707 12.382 45 45 0 0 1-4.8 11.055c0 12.507-8.426 23.317-20.655 28.46A41.603 41.603 0 0 1 241.712 154H54.102c-10.027 0-19.319-2.711-26.94-7.33a46.28 46.28 0 0 1-6.186-4.466c-8.47-7.295-13.721-17.375-13.721-28.51A45.13 45.13 0 0 1 0 89.05c0-18.314 10.81-34.062 26.295-41.014a43.418 43.418 0 0 1 6.356-2.277 43.608 43.608 0 0 1 11.016-1.52h.428c.862 0 1.717.03 2.566.08l.28-.475c.341-.573.692-1.14 1.05-1.7a64.088 64.088 0 0 1 2.039-3.02 69.585 69.585 0 0 1 2.329-3.091l.207-.25c.458-.573.926-1.138 1.405-1.698a83.311 83.311 0 0 1 4.733-5.08C76.67 11.359 104.812 0 136.451 0c24.619 0 47.122 6.878 64.36 18.242a43.322 43.322 0 0 1 21.41-5.64c24.349 0 44.094 20.064 44.094 44.814a46.255 46.255 0 0 1-.249 4.689A44.965 44.965 0 0 1 285 98.908z" fill="#2E855A" opacity=".1"/><path d="M58 29v5h-5a78.624 78.624 0 0 1 5-5zM61 27h6v6h-6zM69 27h6v6h-6zM78 27h6v6h-6zM87 27h6v6h-6zM97 27h6v6h-6z" fill="#2E855A" opacity=".2"/><path fill="#2E855A" d="M105 27h6v6h-6z"/><path fill="#2E855A" opacity=".2" d="M113 27h6v6h-6zM122 27h6v6h-6zM130 27h6v6h-6z"/><path fill="#2E855A" d="M139 27h6v6h-6z"/><path fill="#2E855A" opacity=".2" d="M148 27h6v6h-6zM156 27h6v6h-6zM166 27h6v6h-6zM174 27h6v6h-6zM182 27h6v6h-6zM191 27h6v6h-6z"/><path fill="#2E855A" d="M200 27h6v6h-6zM208 27h6v6h-6z"/><path fill="#2E855A" opacity=".2" d="M217 27h6v6h-6zM226 27h6v6h-6z"/><path fill="#2E855A" d="M234 27h6v6h-6zM243 27h6v6h-6zM51 40v4h-2a82.292 82.292 0 0 1 2-4z"/><path fill="#2E855A" opacity=".2" d="M52 36h6v6h-6z"/><path fill="#2E855A" d="M61 36h6v6h-6z"/><path fill="#2E855A" opacity=".2" d="M69 36h6v6h-6z"/><path fill="#2E855A" opacity=".7" d="M78 36h6v6h-6z"/><path fill="#2E855A" opacity=".2" d="M87 36h6v6h-6z"/><path fill="#2E855A" opacity=".4" d="M97 36h6v6h-6z"/><path fill="#2E855A" d="M105 36h6v6h-6z"/><path fill="#2E855A" opacity=".4" d="M113 36h6v6h-6z"/><path fill="#2E855A" opacity=".2" d="M122 36h6v6h-6z"/><path fill="#2E855A" opacity=".4" d="M130 36h6v6h-6z"/><path fill="#2E855A" d="M139 36h6v6h-6z"/><path fill="#2E855A" opacity=".4" d="M148 36h6v6h-6zM156 36h6v6h-6z"/><path fill="#2E855A" opacity=".2" d="M166 36h6v6h-6z"/><path fill="#2E855A" opacity=".4" d="M174 36h6v6h-6zM182 36h6v6h-6z"/><path fill="#2E855A" opacity=".2" d="M191 36h6v6h-6zM200 36h6v6h-6z"/><path fill="#2E855A" opacity=".4" d="M208 36h6v6h-6z"/><path fill="#2E855A" opacity=".2" d="M217 36h6v6h-6z"/><path fill="#2E855A" d="M226 36h6v6h-6zM234 36h6v6h-6zM243 36h6v6h-6z"/><path d="M33 46v4h-6v-1.954A42.372 42.372 0 0 1 33 46zM42 45v5h-6v-4.258z" fill="#2E855A" opacity=".2"/><path fill="#2E855A" d="M43 44h6v6h-6z"/><path fill="#2E855A" opacity=".7" d="M52 44h6v6h-6z"/><path fill="#2E855A" d="M61 44h6v6h-6z"/><path fill="#2E855A" opacity=".7" d="M69 44h6v6h-6zM78 44h6v6h-6z"/><path fill="#2E855A" opacity=".2" d="M87 44h6v6h-6z"/><path fill="#2E855A" opacity=".4" d="M97 44h6v6h-6zM105 44h6v6h-6z"/><path fill="#2E855A" d="M113 44h6v6h-6z"/><path fill="#2E855A" opacity=".2" d="M122 44h6v6h-6z"/><path fill="#2E855A" opacity=".4" d="M130 44h6v6h-6z"/><path fill="#2E855A" d="M139 44h6v6h-6z"/><path fill="#2E855A" opacity=".2" d="M148 44h6v6h-6z"/><path fill="#2E855A" opacity=".4" d="M156 44h6v6h-6z"/><path fill="#2E855A" opacity=".2" d="M166 44h6v6h-6z"/><path fill="#2E855A" d="M174 44h6v6h-6z"/><path fill="#2E855A" opacity=".2" d="M182 44h6v6h-6z"/><path fill="#2E855A" opacity=".7" d="M191 44h6v6h-6zM200 44h6v6h-6z"/><path fill="#2E855A" opacity=".4" d="M208 44h6v6h-6z"/><path fill="#2E855A" opacity=".2" d="M217 44h6v6h-6z"/><path fill="#2E855A" d="M226 44h6v6h-6zM234 44h6v6h-6zM243 44h6v6h-6z"/><path fill="#2E855A" opacity=".2" d="M27 51h6v6h-6zM36 51h6v6h-6zM43 51h6v6h-6zM52 51h6v6h-6z"/><path fill="#2E855A" d="M61 51h6v6h-6z"/><path fill="#2E855A" opacity=".7" d="M69 51h6v6h-6zM78 51h6v6h-6z"/><path fill="#2E855A" opacity=".2" d="M87 51h6v6h-6zM97 51h6v6h-6z"/><path fill="#2E855A" opacity=".4" d="M105 51h6v6h-6zM113 51h6v6h-6z"/><path fill="#2E855A" d="M122 51h6v6h-6z"/><path fill="#2E855A" opacity=".2" d="M130 51h6v6h-6z"/><path fill="#2E855A" opacity=".4" d="M139 51h6v6h-6zM148 51h6v6h-6zM156 51h6v6h-6zM166 51h6v6h-6z"/><path fill="#2E855A" opacity=".2" d="M174 51h6v6h-6zM182 51h6v6h-6zM191 51h6v6h-6zM200 51h6v6h-6z"/><path fill="#2E855A" opacity=".7" d="M208 51h6v6h-6zM217 51h6v6h-6z"/><path fill="#2E855A" opacity=".4" d="M226 51h6v6h-6z"/><path fill="#2E855A" opacity=".2" d="M234 51h6v6h-6z"/><path fill="#2E855A" d="M243 51h6v6h-6z"/><path fill="#2E855A" opacity=".2" d="M27 60h6v6h-6zM36 60h6v6h-6z"/><path fill="#2E855A" opacity=".4" d="M43 60h6v6h-6z"/><path fill="#2E855A" opacity=".2" d="M52 60h6v6h-6zM61 60h6v6h-6z"/><path fill="#2E855A" opacity=".7" d="M69 60h6v6h-6zM78 60h6v6h-6z"/><path fill="#2E855A" opacity=".2" d="M87 60h6v6h-6zM97 60h6v6h-6z"/><path fill="#2E855A" opacity=".4" d="M105 60h6v6h-6z"/><path fill="#2E855A" d="M113 60h6v6h-6z"/><path fill="#2E855A" opacity=".2" d="M122 60h6v6h-6z"/><path fill="#2E855A" d="M130 60h6v6h-6zM139 60h6v6h-6zM148 60h6v6h-6z"/><path fill="#2E855A" opacity=".2" d="M156 60h6v6h-6z"/><path fill="#2E855A" d="M166 60h6v6h-6z"/><path fill="#2E855A" opacity=".2" d="M174 60h6v6h-6zM182 60h6v6h-6zM191 60h6v6h-6zM200 60h6v6h-6zM208 60h6v6h-6z"/><path fill="#2E855A" opacity=".7" d="M217 60h6v6h-6z"/><path fill="#2E855A" opacity=".2" d="M226 60h6v6h-6zM234 60h6v6h-6z"/><path fill="#2E855A" d="M243 60h6v6h-6z"/><path fill="#2E855A" opacity=".2" d="M27 68h6v6h-6zM36 68h6v6h-6zM43 68h6v6h-6z"/><path fill="#2E855A" opacity=".4" d="M52 68h6v6h-6z"/><path fill="#2E855A" opacity=".2" d="M61 68h6v6h-6zM69 68h6v6h-6z"/><path fill="#2E855A" opacity=".7" d="M78 68h6v6h-6z"/><path fill="#2E855A" opacity=".2" d="M87 68h6v6h-6zM97 68h6v6h-6zM105 68h6v6h-6z"/><path fill="#2E855A" d="M113 68h6v6h-6z"/><path fill="#2E855A" opacity=".2" d="M122 68h6v6h-6z"/><path fill="#2E855A" d="M130 68h6v6h-6zM139 68h6v6h-6z"/><path fill="#2E855A" opacity=".2" d="M148 68h6v6h-6zM156 68h6v6h-6zM166 68h6v6h-6zM174 68h6v6h-6zM182 68h6v6h-6zM191 68h6v6h-6zM200 68h6v6h-6zM208 68h6v6h-6zM217 68h6v6h-6zM226 68h6v6h-6z"/><path fill="#2E855A" opacity=".4" d="M234 68h6v6h-6z"/><path fill="#2E855A" d="M243 68h6v6h-6z"/><path fill="#2E855A" opacity=".7" d="M27 76h6v6h-6zM36 76h6v6h-6zM43 76h6v6h-6zM52 76h6v6h-6zM61 76h6v6h-6z"/><path fill="#2E855A" opacity=".2" d="M69 76h6v6h-6zM78 76h6v6h-6zM87 76h6v6h-6zM97 76h6v6h-6zM105 76h6v6h-6zM113 76h6v6h-6z"/><path fill="#2E855A" d="M122 76h6v6h-6z"/><path fill="#2E855A" opacity=".2" d="M130 76h6v6h-6zM139 76h6v6h-6zM148 76h6v6h-6z"/><path fill="#2E855A" d="M156 76h6v6h-6z"/><path fill="#2E855A" opacity=".2" d="M166 76h6v6h-6zM174 76h6v6h-6zM182 76h6v6h-6zM191 76h6v6h-6zM200 76h6v6h-6zM208 76h6v6h-6zM217 76h6v6h-6zM226 76h6v6h-6zM234 76h6v6h-6z"/><path fill="#2E855A" d="M243 76h6v6h-6z"/><circle fill="#767D9F" cx="182.5" cy="90.5" r="8.5"/><path d="M181.225 79.747a171.72 171.72 0 0 1 2.227 11.6c.184 1.157.347 2.378-.07 3.472-.35.912-1.061 1.625-1.62 2.423-.558.799-.98 1.822-.64 2.737.339.915 1.33 1.415 2.275 1.673 2.705.733 5.589.2 8.282-.594a13.36 13.36 0 0 0 3.472-1.445c1.141-.728 2.076-1.74 2.936-2.78 3.925-4.784 6.494-10.525 8.913-16.232a9.81 9.81 0 0 1-8.324-3.37c-.991-1.17-1.718-2.8-1.16-4.231-1.636.902-3.58.963-5.342 1.58a18.94 18.94 0 0 0-3.143 1.554c-1.203.699-2.4 1.411-3.59 2.137-1.36.824-2.635 1.557-4.216 1.476z" fill="#AE6E79"/><path d="M201.751 86.102c-1.534 2.994-3.531 5.871-6.382 7.653-2.851 1.783-6.69 2.266-9.546.504-1.406-.861-2.471-2.17-3.7-3.273-1.228-1.102-2.763-2.046-4.413-1.903-1.819.159-3.243 1.581-4.461 2.943-1.849 2.07-3.635 4.227-4.944 6.676-2.512 4.708-3.107 10.211-2.996 15.548.11 5.337.881 10.647.899 15.984.025 6.566-1.085 13.078-2.208 19.546 10.324-1.274 20.66 1.51 31.007 2.565 6.621.682 13.293.667 19.95.65 1.17 0 2.416-.03 3.39-.68a4.58 4.58 0 0 0 1.405-1.672c.919-1.7 1.288-3.638 1.544-5.553.651-4.839.671-9.738.689-14.622.045-11.832.088-23.707-1.412-35.446-.37-2.888-.841-5.79-1.947-8.492-1.105-2.701-2.908-5.186-5.43-6.633-1.62-.932-5.376-2.553-7.285-1.614-2.143 1.047-3.132 5.815-4.16 7.82z" fill="#767D9F"/><path d="M201.171 118.7c-.386-7.152-1.956-14.786 1.386-21.134.822-1.56-2.125-3.505-1.214-5.015a22.599 22.599 0 0 0 2.504-5.902c.189-.713.34-1.467.162-2.183-.331-1.304-1.633-2.081-2.738-2.875-1.22-.878-1.847-3.554-2.24-5.002-.394-1.448 3.128.296 4.545-.22 1.966-.713 4.465-.264 6.426.459 1.096.4 2.285.434 3.453.464 2.267.059 4.542.116 6.792-.16 1.011-.126 2.024-.316 3.04-.26 2.59.146 4.843 1.902 6.377 3.979 1.533 2.076 2.509 4.496 3.766 6.745 1.048 1.875 2.297 3.646 3.19 5.597.792 1.726 1.293 3.58 1.788 5.426l1.277 4.733c.223.677.33 1.386.313 2.099-.064.757-.403 1.462-.746 2.136a40.445 40.445 0 0 1-4.647 7.026c-2.686 3.263-5.947 6.206-7.542 10.113-.623 1.521-.969 3.14-1.285 4.752A173.107 173.107 0 0 0 223.065 149a43.637 43.637 0 0 0-13.82-3.751c-1.39-.143-3.185.128-4.51-.247-2.215-.624-2.459-4.336-2.795-6.28-.537-3.095-.644-6.244-.664-9.372-.025-3.556.087-7.106-.105-10.65zM152.515 106.366c1.049 5.983 2.205 11.983 4.485 17.605a4.803 4.803 0 0 1-.172.154c-.202.172-.411.334-.63.499-.511.359-1.072.663-1.495 1.132-.16.18-.287.386-.374.61-.159.355-.159.76 0 1.115-1.189.526-2.57.364-3.902.314-1.15-.042-2.263 0-3.185.63-1.28.883-1.667 2.579-1.874 4.12a44.473 44.473 0 0 0-.197 1.687 47.042 47.042 0 0 0-.125 7.768c-4.07-.097-7.781-2.221-11.292-4.285-.802-.472-1.63-.968-2.15-1.745a3.94 3.94 0 0 1-.576-2.566c0-.127.022-.25.04-.379.112-.74.303-1.465.57-2.164a26.727 26.727 0 0 1 4.782-8.14c.892-1.041 1.897-2.06 2.313-3.37.182-.57.249-1.176.433-1.745.828-2.463 3.813-3.627 4.834-6.018.25-.57.364-1.196.673-1.745a4.394 4.394 0 0 1 1.06-1.184c.181-.152.37-.3.557-.446a74.045 74.045 0 0 0 5.061-4.35c.302-.285.601-.572.897-.863-.04 1.128.05 2.257.267 3.366z" fill="#22543D"/><path d="M178.188 88.41c-.356.378-.742.733-1.12 1.085l-.102.092-.401.373a9.675 9.675 0 0 0-1.868 2.182l-.042.07c-1.262 2.267-.795 5.058-.443 7.632a65.16 65.16 0 0 1 .586 9.684c-.064 4.47-.589 8.909-.599 13.373 0 1.013.023 2.024.067 3.037.072 1.646.196 3.29.344 4.933.161 1.803.354 3.603.535 5.403.143 1.393.28 2.784.393 4.174.057.72.111 1.438.156 2.158.052.844.094 1.69.119 2.535.017.536.027 1.07.027 1.606v.912c0 .58-.016 1.16-.047 1.738a48.699 48.699 0 0 1-.151 2.234c-.077.812-.213 1.699-.782 2.27a2.068 2.068 0 0 1-.109.099l-.802-.1a82.056 82.056 0 0 0-16.653-.297c.121-.84.232-1.676.341-2.518a175.718 175.718 0 0 0 .46-4.057 158.012 158.012 0 0 0 .75-12.147c.028-1.112.042-2.225.04-3.34 0-1.082-.01-2.166-.027-3.252 0-.357-.015-.715-.045-1.07a6.812 6.812 0 0 0-.131-.951 12.41 12.41 0 0 0-.742-2.106c-.055-.129-.107-.248-.159-.384-.03-.067-.057-.137-.084-.204 1.425-1.274 2.44-2.98 3.415-4.658 1.581-2.704 3.2-5.527 3.464-8.65.265-3.124-1.281-6.633-4.256-7.586-.809-.248-1.665-.318-2.5-.464-.786-.14-2.427-.455-3.337-1.02-.495.509-.99 1.01-1.485 1.501.03-.75.213-1.486.537-2.162l.351.017a.675.675 0 0 1-.04-.248c0-.266.184-.566.575-.9 1.165-.992 2.999-1.213 3.734-2.557.307-.558.359-1.224.606-1.81.71-1.67 2.75-2.286 3.977-3.622 1.227-1.336 1.534-3.228 2.526-4.718a7.088 7.088 0 0 1 2.97-2.483c.099-.047.2-.094.302-.136 2.053-.882 4.493-1.083 6.621-1.078.827 0 2.97.025 4.02.445.17.06.325.156.457.28 1.118 1.222-.621 3.802-1.448 4.685z" fill="#22543D"/><path d="M153.651 99.653a14.895 14.895 0 0 1 11.614 1.232c1.789 1.01 3.394 2.422 4.378 4.242 1.478 2.73 1.414 6.022 1.31 9.14-.053 1.56-.12 3.175-.796 4.575-.782 1.62-2.258 2.733-3.764 3.643a10.403 10.403 0 0 1-3.061 1.348c-1.67.369-3.404.055-5.086-.253-1.829-.344-3.792-.758-5.062-2.144-.745-.804-1.153-1.848-1.555-2.87-.578-1.474-1.158-2.947-1.74-4.419-1.006-2.556-1.346-4.682-.017-7.172.604-1.135 1.342-2.197 1.938-3.34.298-.581 1.367-3.832 1.841-3.982z" fill="#22543D"/><path d="M258 143.44v7.326a42.055 42.055 0 0 1-16.078 3.136h-66.988a2.063 2.063 0 0 1-.11.098l-.804-.098H54.86c-9.997 0-19.262-2.66-26.86-7.193v-11.185L85.308 129h.045l33.373 2.788 8.637.735 4.486.375 9.284.777 4.777.399 6.955.583.978.08 5.013.42 6.8.551 9.564.799 15.941 1.335 11.215.938 18.415 1.542 3.503.291.377.032.328.027 4.625.387 5.077.426.589.05L258 143.44z" fill="#504F60"/><path fill="#9C9CA1" d="M189 142.708L117.762 130 115 144.598l32.655 4.086L157.71 150l27.658-5.693z"/><path d="M154 149.497l35.543-7.473c.36-.077.732.03 1.014.292.282.262.444.651.443 1.061.002.663-.42 1.233-1.004 1.353l-34.71 7.27-1.286-2.503z" fill="#9C9CA1"/><path d="M168.039 127.633c1.121-.1 2.258-.27 3.267-.749 1.244-.595 2.211-1.622 3.363-2.378 2.532-1.675 5.919-1.9 8.821-.938 2.903.962 5.325 3.022 7.021 5.482 1.127 1.639 1.972 3.73 1.177 5.539a7.271 7.271 0 0 1-1.025 1.54l-2.074 2.609a7.052 7.052 0 0 1-1.408 1.457c-.776.543-1.74.765-2.69.9-2.525.353-5.094.152-7.638.315-4.37.28-8.638 1.634-13.017 1.589-2.517-.026-5.002-.515-7.462-1.003l-10.885-2.153c-1.895-.373-4.037-.919-4.93-2.572-.4-.744-.474-1.606-.522-2.443-.129-2.306 0-4.871 1.662-6.534 1.561-1.56 4.031-2.053 5.896-3.206 2.283-1.414 3.037-.957 5.444.105a30.889 30.889 0 0 0 15 2.44z" fill="#AE6E79"/><path d="M168.039 127.633c1.121-.1 2.258-.27 3.267-.749 1.244-.595 2.211-1.622 3.363-2.378 2.532-1.675 5.919-1.9 8.821-.938 2.903.962 5.325 3.022 7.021 5.482 1.127 1.639 1.972 3.73 1.177 5.539a7.271 7.271 0 0 1-1.025 1.54l-2.074 2.609a7.052 7.052 0 0 1-1.408 1.457c-.776.543-1.74.765-2.69.9-2.525.353-5.094.152-7.638.315-4.37.28-8.638 1.634-13.017 1.589-2.517-.026-5.002-.515-7.462-1.003l-10.885-2.153c-1.895-.373-4.037-.919-4.93-2.572-.4-.744-.474-1.606-.522-2.443-.129-2.306 0-4.871 1.662-6.534 1.561-1.56 4.031-2.053 5.896-3.206 2.283-1.414 3.037-.957 5.444.105a30.889 30.889 0 0 0 15 2.44z" fill="#000" opacity=".05"/><path d="M212.659 124.288c-3.02 1.196-6.056 2.396-9.217 3.108-5.3 1.196-10.847 1.007-16.106 2.374-2.778.725-5.539 1.893-8.393 1.656-1.276-.106-2.507-.503-3.749-.805-6.975-1.762-14.903-1.19-20.568 3.34-1.937 1.547-3.523 3.478-4.96 5.536a3.772 3.772 0 0 0-.54 3.104 3.678 3.678 0 0 0 1.992 2.403 20.907 20.907 0 0 0 6.977 1.906c3.228.291 6.471-.177 9.682-.645 4.764-.692 9.531-1.387 14.284-2.164 1.706-.28 3.412-.57 5.128-.79 12.349-1.599 24.921.344 37.302-.99 1.252-.136 2.525-.312 3.663-.858 2.882-1.384 4.308-5.034 3.713-8.24-.595-3.206-2.891-5.872-5.655-7.508-2.316-1.376-4.813-1.933-7.392-2.517-2.395-.57-3.855.184-6.161 1.09z" fill="#AE6E79"/><path d="M239.403 105.658c1.413 1.814 1.714 4.248 1.561 6.52-.153 2.272-.704 4.519-.785 6.8-.113 3.13.658 6.248.527 9.367-.091 2.182-.62 4.321-1.244 6.415-.737 2.472-1.803 5.129-4.13 6.316-3.091 1.577-9.573.69-12.824 1.924.296-1.807 3.131-4.423 3.427-6.23.204-1.25.41-2.534.191-3.787-.28-1.596-1.237-3.013-2.371-4.193-1.806-1.877-4.162-3.289-6.75-3.749-2.588-.46-8.925-.082-10.995 1.52-.255-1.655 4.488-3.25 6.155-3.607.832-.182 1.785-.08 2.45-.597 1.276-.98.35-2.931.411-4.498.049-1.25.793-2.394.944-3.644.255-2-1.076-4.036-.554-5.998.194-.725.625-1.362.924-2.052.907-2.112.51-4.52.025-6.765-.3-1.41-.594-2.999.207-4.2.742-1.123 2.848 2.873 4.197 2.688 4.454-.612 8.486-3.849 12.084-1.2 1.833 1.35 2.073 2.75 2.805 4.676.711 1.835 2.555 2.774 3.745 4.294z" fill="#000" opacity=".1"/><path d="M240.403 105.425c1.413 1.825 1.714 4.275 1.561 6.56-.153 2.287-.704 4.547-.785 6.843-.113 3.149.658 6.287.527 9.426-.091 2.195-.62 4.348-1.244 6.455-.737 2.487-1.803 5.16-4.13 6.355-3.091 1.586-9.573.694-12.824 1.936.296-1.818 3.131-4.451 3.427-6.27.204-1.257.41-2.55.191-3.81-.28-1.606-1.237-3.032-2.371-4.219-1.806-1.888-4.162-3.31-6.75-3.772-2.588-.463-8.925-.083-10.995 1.529-.255-1.665 4.488-3.27 6.155-3.629.832-.183 1.785-.08 2.45-.6 1.276-.987.35-2.95.411-4.527.049-1.258.793-2.41.944-3.667.255-2.012-1.076-4.061-.554-6.035.194-.73.625-1.37.924-2.065.907-2.125.51-4.549.025-6.807-.3-1.418-.594-3.018.207-4.227.742-1.13 2.193-1.557 3.541-1.746a17.63 17.63 0 0 1 12.75 3.244c1.833 1.358 2.073 2.767 2.805 4.705.701 1.846 2.545 2.792 3.735 4.32z" fill="#22543D"/><path d="M75.11 94.327l13.584 49.585a3.125 3.125 0 0 0 2.726 2.272l61.146 5.802a3.153 3.153 0 0 0 2.671-1.057c.665-.759.915-1.789.672-2.763l-14.877-59.81c-.365-1.469-1.751-2.46-3.278-2.347L77.891 90.43c-.931.071-1.78.549-2.319 1.302a3.063 3.063 0 0 0-.462 2.594z" fill="#9C9CA1"/><circle fill="#FFF" cx="196" cy="96" r="7"/><path d="M200.986 84.112s1.282 4.384-2.502 6.227l-.484.973L200.37 94s2.923-6.128 2.606-8.305c0 0-.452-2.21-1.99-1.583z" fill="#FFF"/><circle fill="#2E855A" cx="197" cy="96" r="6"/><path d="M204.737 87l-1.092-1.565-1.592-.195c.34-5.152-1.202-6.687-1.202-6.687l-.358-.03-1.56-.131L196 75.75V75c4.122.426 6.4 2.124 7.631 4.114 2.175 3.493 1.106 7.886 1.106 7.886z" fill="#2E855A"/><path d="M200 75.632V77l-1.389-.19L196 73s4.04 1.271 4 2.632zM203.805 87L203 85.212V78c1.593 3.98.805 9 .805 9z" stroke="#4C4981" fill="#000" opacity=".1"/><ellipse fill="#FFF" transform="rotate(-30 181.48 93.91)" cx="181.481" cy="93.91" rx="3.593" ry="6.557"/><path d="M183.051 92.753c1.821 2.929 4.056 4.885 2.327 5.815-1.728.93-6.764.466-8.585-2.465-1.82-2.93-.168-6.978 1.56-7.909 1.73-.93 2.874 1.624 4.698 4.56z" fill="#2E855A"/><path d="M198 69.48c0 9.94-6.853 19.52-16.867 19.52C171.12 89 163 80.941 163 71s8.119-18 18.133-18C191.147 53.01 198 59.538 198 69.48z" fill="#000" opacity=".1"/><circle fill="#AE6E79" cx="182" cy="71" r="18"/><path d="M180.214 64.47c2.166.823 3.448 3.133 5.392 4.42 2.75 1.804 6.328 1.338 9.466.445 1.75-.492 3.579-1.093 5.3-.546.254.116.533.157.808.118.374-.11.56-.538.682-.92 2.129-6.549 1.172-13.967-2.042-20.026-.83-1.562-1.824-3.073-3.193-4.158-1.08-.854-2.35-1.413-3.629-1.89a35.32 35.32 0 0 0-7.217-1.838 4.347 4.347 0 0 0-1.317-.044c-.602.1-1.142.435-1.679.734a16.781 16.781 0 0 1-7.462 2.091c-3.498.137-7.497-.714-10.193 1.602-3.248 2.776-2.439 8.193-4.545 11.963-1.395 2.493-4.084 4.303-4.526 7.142a6.796 6.796 0 0 0 .158 2.596c1.03 4.368 5.127 7.75 9.495 7.83a3.51 3.51 0 0 0 1.94-.41c.39-.275.736-.614 1.022-1.003 2.86-3.496 6.134-10.158 11.54-8.106z" fill="#444053"/><path d="M201.86 64.28c-.123.372-.308.79-.683.899a1.488 1.488 0 0 1-.807-.116c-1.72-.534-3.56.053-5.296.534-3.14.871-6.726 1.337-9.464-.436-1.946-1.26-3.225-3.526-5.394-4.317-5.404-2.015-8.677 4.503-11.545 7.919a4.4 4.4 0 0 1-1.022.98 3.578 3.578 0 0 1-1.939.4c-4.352-.078-8.452-3.383-9.494-7.65a10.056 10.056 0 0 1-.144-.755c0 .023 0 .043-.013.065a6.492 6.492 0 0 0 .157 2.537c1.03 4.267 5.13 7.571 9.494 7.65a3.578 3.578 0 0 0 1.94-.401 4.4 4.4 0 0 0 1.02-.98c2.87-3.415 6.142-9.924 11.546-7.919 2.169.804 3.448 3.06 5.394 4.317 2.748 1.763 6.323 1.308 9.464.436 1.749-.481 3.575-1.068 5.296-.534.254.113.533.153.807.116.375-.108.56-.527.683-.9A22.915 22.915 0 0 0 202.979 58a22.531 22.531 0 0 1-1.12 6.28z" fill="#000" opacity=".1"/></g></svg>
