<svg width="1292" height="245" viewBox="0 0 1292 245" fill="none" xmlns="http://www.w3.org/2000/svg">
<path d="M221.494 101.381C233.274 100.815 243.701 109.953 244.718 121.743C249.124 178.78 196.925 242.674 123.366 244.717C61.3771 246.247 0.0683594 196.619 0.0683594 121.58C0.0683594 109.754 9.84059 100.167 21.6338 100.167C33.427 100.167 42.9873 109.754 42.9873 121.58C42.9873 170.939 82.675 202.883 122.316 201.905C171.115 200.549 202.839 158.295 201.189 123.795C200.623 111.983 209.715 101.948 221.494 101.381Z" fill="url(#paint0_linear)"/>
<path d="M168.15 123.24C168.15 111.133 178.026 101.318 190.208 101.318L222.354 101.318C234.537 101.318 244.718 111.133 244.718 123.24C244.718 135.348 234.537 145.163 222.354 145.163H190.208C178.026 145.163 168.15 135.348 168.15 123.24Z" fill="#00A672"/>
<path d="M100.7 123.272C100.7 111.147 110.513 101.318 122.604 101.318C134.696 101.318 144.509 111.147 144.509 123.272C144.509 135.397 134.696 145.227 122.604 145.227C110.513 145.227 100.7 135.397 100.7 123.272Z" fill="#00A672"/>
<path fill-rule="evenodd" clip-rule="evenodd" d="M143.902 20.6961C144.392 32.5119 135.236 42.4882 123.453 42.9789C72.5875 45.0972 41.5346 85.0757 43.0461 123.036C43.5166 134.852 34.5367 144.814 22.7528 145.286C10.969 145.758 0.606386 136.221 0.135873 124.405C-2.32727 62.5448 49.1805 1.39121 121.681 0.190226C133.464 -0.300477 143.413 8.88031 143.902 20.6961Z" fill="#00A672"/>
<g clip-path="url(#clip0)">
<path d="M408.408 133.495H449.737C447.645 141.221 444.345 148.224 439.838 154.502C435.491 160.618 429.777 165.528 422.694 169.231C415.611 172.933 406.999 174.784 396.858 174.784C385.75 174.784 375.69 172.209 366.675 167.057C357.821 161.906 350.819 154.743 345.668 145.568C340.517 136.231 337.941 125.446 337.941 113.212C337.941 100.817 340.517 90.1123 345.668 81.0978C350.98 71.9223 358.063 64.8395 366.916 59.8493C375.931 54.8591 385.911 52.3641 396.858 52.3641C408.609 52.3641 418.589 54.7787 426.799 59.6079C435.169 64.437 441.689 70.876 446.357 78.9246L469.537 63.2297C462.132 51.4787 452.233 42.3032 439.838 35.7034C427.604 29.1035 413.277 25.8035 396.858 25.8035C384.141 25.8035 372.309 27.9766 361.363 32.3229C350.578 36.5082 341.161 42.4642 333.112 50.1909C325.224 57.9176 319.027 67.1736 314.519 77.9588C310.173 88.583 308 100.334 308 113.212C308 126.09 310.173 137.921 314.519 148.706C318.866 159.492 324.983 168.828 332.87 176.716C340.919 184.604 350.336 190.72 361.121 195.067C371.907 199.252 383.658 201.345 396.375 201.345C409.896 201.345 421.889 198.93 432.352 194.101C442.816 189.111 451.589 182.35 458.672 173.818C465.754 165.287 471.067 155.548 474.608 144.602C478.149 133.495 479.759 121.743 479.437 109.349H411.856L408.408 133.495Z" fill="white"/>
<path d="M557.921 114.661L570.719 92.4464C568.143 89.5489 565.085 87.4562 561.543 86.1684C558.002 84.8806 554.219 84.2367 550.195 84.2367C545.526 84.2367 540.939 85.6855 536.431 88.583C531.924 91.3196 528.061 95.1829 524.841 100.173V86.6514H499.005V197.723H524.841V135.185C524.841 127.136 526.29 120.697 529.188 115.868C532.085 111.039 536.753 108.624 543.192 108.624C546.412 108.624 549.068 109.188 551.16 110.314C553.253 111.28 555.507 112.729 557.921 114.661Z" fill="white"/>
<path d="M583.786 86.6514V197.723H609.381V86.6514H583.786ZM580.164 45.9105C580.164 50.4178 581.774 54.2007 584.993 57.2592C588.213 60.3176 592.076 61.8469 596.583 61.8469C601.252 61.8469 605.195 60.3176 608.415 57.2592C611.634 54.2007 613.244 50.4178 613.244 45.9105C613.244 41.4033 611.634 37.6204 608.415 34.5619C605.195 31.5034 601.252 29.9742 596.583 29.9742C592.076 29.9742 588.213 31.5034 584.993 34.5619C581.774 37.6204 580.164 41.4033 580.164 45.9105Z" fill="white"/>
<path d="M653.169 142.187C653.169 131.08 656.469 122.468 663.069 116.351C669.669 110.073 677.476 106.934 686.49 106.934C691.481 106.934 696.39 108.302 701.219 111.039C706.049 113.775 710.073 117.8 713.292 123.112C716.512 128.263 718.122 134.621 718.122 142.187C718.122 149.753 716.512 156.192 713.292 161.504C710.073 166.655 706.049 170.599 701.219 173.335C696.39 176.072 691.481 177.44 686.49 177.44C677.476 177.44 669.669 174.382 663.069 168.265C656.469 161.987 653.169 153.294 653.169 142.187ZM626.125 142.187C626.125 154.421 628.62 164.884 633.61 173.577C638.601 182.108 645.201 188.708 653.41 193.377C661.62 197.884 670.554 200.137 680.212 200.137C688.261 200.137 695.505 198.367 701.944 194.825C708.544 191.123 713.936 185.972 718.122 179.372V197.723H744.441V17.3108H718.122V105.002C713.936 98.4024 708.544 93.3317 701.944 89.7903C695.505 86.0879 688.261 84.2367 680.212 84.2367C670.554 84.2367 661.62 86.5709 653.41 91.2391C645.201 95.7463 638.601 102.346 633.61 111.039C628.62 119.57 626.125 129.953 626.125 142.187Z" fill="white"/>
<path d="M774.079 157.64L758.867 172.37C764.019 180.579 770.86 187.421 779.391 192.894C788.084 198.367 797.823 201.103 808.608 201.103C820.359 201.103 829.937 198.286 837.342 192.652C844.908 186.857 848.691 178.084 848.691 166.333C848.691 159.733 847.242 154.341 844.344 150.155C841.447 145.97 837.664 142.509 832.996 139.772C828.328 136.875 823.337 134.38 818.025 132.287C813.84 130.517 809.574 128.907 805.228 127.458C801.042 126.009 797.582 124.319 794.845 122.387C792.108 120.456 790.74 117.961 790.74 114.902C790.74 111.522 792.028 109.107 794.604 107.658C797.34 106.049 800.962 105.244 805.469 105.244C809.977 105.244 814.645 106.532 819.474 109.107C824.464 111.683 828.81 114.983 832.513 119.007L847 104.036C842.815 98.4024 836.859 93.7342 829.132 90.0318C821.567 86.1684 813.277 84.2367 804.262 84.2367C797.662 84.2367 791.465 85.444 785.669 87.8586C779.874 90.2732 775.206 93.7342 771.665 98.2414C768.123 102.749 766.353 108.222 766.353 114.661C766.353 121.583 767.882 127.217 770.94 131.563C774.16 135.748 778.184 139.129 783.013 141.704C787.843 144.28 792.833 146.614 797.984 148.706C804.423 151.121 810.057 153.697 814.886 156.433C819.876 159.17 822.372 162.953 822.372 167.782C822.372 171.484 821.003 174.301 818.267 176.233C815.691 178.004 812.069 178.889 807.401 178.889C802.572 178.889 797.099 176.957 790.982 173.094C785.026 169.07 779.391 163.918 774.079 157.64Z" fill="white"/>
<path d="M886.396 142.187C886.396 131.724 889.535 123.273 895.813 116.834C902.252 110.395 910.139 107.175 919.476 107.175C928.973 107.175 936.861 110.395 943.139 116.834C949.417 123.273 952.556 131.724 952.556 142.187C952.556 152.489 949.417 160.94 943.139 167.54C936.861 173.979 928.973 177.199 919.476 177.199C910.139 177.199 902.252 173.979 895.813 167.54C889.535 160.94 886.396 152.489 886.396 142.187ZM859.594 142.187C859.594 153.616 862.169 163.677 867.32 172.37C872.633 181.062 879.796 187.903 888.81 192.894C897.986 197.723 908.208 200.137 919.476 200.137C930.905 200.137 941.127 197.723 950.141 192.894C959.156 187.903 966.239 181.062 971.39 172.37C976.702 163.677 979.358 153.616 979.358 142.187C979.358 130.758 976.702 120.697 971.39 112.005C966.239 103.312 959.156 96.5512 950.141 91.722C941.127 86.7318 930.905 84.2367 919.476 84.2367C908.208 84.2367 897.986 86.7318 888.81 91.722C879.796 96.5512 872.633 103.312 867.32 112.005C862.169 120.697 859.594 130.758 859.594 142.187Z" fill="white"/>
<path d="M1153.57 127.217C1153.57 113.212 1150.67 102.588 1144.88 95.3439C1139.08 87.9391 1130.15 84.2367 1118.07 84.2367C1110.67 84.2367 1103.91 86.0074 1097.79 89.5489C1091.67 92.9293 1086.76 97.678 1083.06 103.795C1078.07 90.7562 1067.45 84.2367 1051.19 84.2367C1043.94 84.2367 1037.67 85.927 1032.35 89.3074C1027.2 92.6878 1023.1 97.1951 1020.04 102.829V86.6514H994.445V197.723H1020.04V130.114C1020.04 122.709 1021.89 116.753 1025.59 112.246C1029.46 107.578 1034.93 105.244 1042.01 105.244C1048.77 105.244 1053.52 107.417 1056.26 111.763C1059 115.948 1060.36 122.065 1060.36 130.114V197.723H1086.68V130.114C1086.68 122.709 1088.53 116.753 1092.24 112.246C1096.1 107.578 1101.57 105.244 1108.66 105.244C1115.42 105.244 1120.17 107.417 1122.9 111.763C1125.8 115.948 1127.25 122.065 1127.25 130.114V197.723H1153.57V127.217Z" fill="white"/>
<path d="M1196.35 148.224H1284.97C1285.13 146.936 1285.21 145.648 1285.21 144.36C1285.37 143.072 1285.45 141.946 1285.45 140.98C1285.45 123.434 1278.05 109.59 1268.07 99.4487C1258.25 89.3074 1244.72 84.2367 1227.5 84.2367C1211.56 84.2367 1198.6 88.5025 1188.62 97.0341C1178.81 105.566 1172.77 116.673 1170.51 130.356C1170.19 132.287 1169.95 134.219 1169.79 136.151C1169.63 138.082 1169.55 140.094 1169.55 142.187C1169.55 153.294 1171.88 163.275 1176.55 172.128C1181.22 180.821 1187.82 187.662 1196.35 192.652C1204.88 197.642 1214.86 200.137 1226.29 200.137C1240.14 200.137 1251.48 197.401 1260.34 191.928C1269.35 186.455 1279.01 179.211 1284.48 170.196L1259.37 161.021C1256.15 166.494 1251.89 170.84 1246.58 174.06C1241.42 177.118 1235.07 178.647 1227.5 178.647C1218.97 178.647 1211.89 176.152 1206.25 171.162C1200.62 166.011 1197.32 158.365 1196.35 148.224ZM1196.83 130.114C1197.96 121.904 1201.34 115.546 1206.98 111.039C1212.61 106.371 1219.37 104.036 1227.26 104.036C1235.63 104.036 1242.07 106.371 1246.58 111.039C1251.08 115.707 1253.82 122.065 1254.78 130.114H1196.83Z" fill="white"/>
</g>
<defs>
<linearGradient id="paint0_linear" x1="132.189" y1="252.705" x2="132.189" y2="120.659" gradientUnits="userSpaceOnUse">
<stop stop-color="#007A55"/>
<stop offset="1" stop-color="#005037"/>
</linearGradient>
<clipPath id="clip0">
<rect width="984" height="183" fill="white" transform="translate(308 18)"/>
</clipPath>
</defs>
</svg>
