<?xml version="1.0" encoding="UTF-8"?>
<svg width="519px" height="334px" viewBox="0 0 519 334" version="1.1" xmlns="http://www.w3.org/2000/svg" xmlns:xlink="http://www.w3.org/1999/xlink">
    <!-- Generator: Sketch 53.2 (72643) - https://sketchapp.com -->
    <title>mind_map</title>
    <desc>Created with Sketch.</desc>
    <defs>
        <linearGradient x1="50.013785%" y1="99.9812483%" x2="50.013785%" y2="0.0244426282%" id="linearGradient-1">
            <stop stop-color="#808080" stop-opacity="0.25" offset="0%"></stop>
            <stop stop-color="#808080" stop-opacity="0.12" offset="54%"></stop>
            <stop stop-color="#808080" stop-opacity="0.1" offset="100%"></stop>
        </linearGradient>
    </defs>
    <g id="Page-1" stroke="none" stroke-width="1" fill="none" fill-rule="evenodd">
        <g id="Artboard-Copy" transform="translate(-294.000000, -734.000000)">
            <g id="mind_map" transform="translate(271.000000, 689.000000)">
                <ellipse id="Oval" fill="#2E855A" fill-rule="nonzero" opacity="0.1" cx="419.5" cy="358.5" rx="90.5" ry="20.5"></ellipse>
                <g id="Group" opacity="0.1" transform="translate(317.000000, 57.000000)" fill="#2E855A" fill-rule="nonzero">
                    <path d="M0.00927272727,0.369964789 C0.00927272727,73.4731338 45.4131818,132.625352 101.545636,132.625352" id="Path"></path>
                </g>
                <path d="M318.016554,107.319758 C284.751326,107.574638 252.788496,100.027374 222.226802,91.6163516 C191.665109,83.2053294 161.35261,73.7464694 128.75974,69.8855176 C107.780312,67.3980829 83.9045769,67.789842 67.4153677,77.4375016 C51.546796,86.7170019 46.8496988,101.92953 44.5317119,115.96678 C42.7873444,126.530118 41.9363188,137.612654 48.0768683,147.222554 C52.3178911,153.8919 59.6432939,159.367088 64.8152729,165.720195 C82.8043559,187.823908 71.6469868,216.271288 53.8083614,239.120759 C45.4438609,249.839856 35.6594171,260.124715 29.3119884,271.443251 C22.9645598,282.761787 20.2939379,295.5624 26.5896468,306.654376 C32.8336359,317.642513 47.0612798,325.534336 62.3656356,330.938725 C93.4586325,341.841902 129.700099,344.013097 164.987101,344.702215 C243.10279,346.236212 321.420656,341.572862 399.526942,336.914232 C428.4289,335.186716 457.462509,333.449759 485.79555,328.819449 C501.52777,326.247055 517.730169,322.475783 528.929854,314.37156 C543.152796,304.081982 546.176053,287.415697 535.982553,275.511882 C518.88211,255.551044 473.448626,252.062972 461.223948,230.421818 C454.495674,218.508563 460.485766,204.759232 469.217007,193.171656 C487.995992,168.325629 520.160999,145.971756 520.936796,118.303175 C521.453994,99.3052153 504.950679,80.8830943 480.181602,72.7883114 C454.204163,64.2923294 418.686773,66.7514442 400.321546,82.9882098 C381.406208,99.7064144 347.393394,107.097919 318.016554,107.319758 Z" id="Path" fill="#2E855A" fill-rule="nonzero" opacity="0.1"></path>
                <path d="M468,60.6878116 L468,304.814404 C468,312.0759 461.003468,318 452.37065,318 L121.624648,318 C112.99183,318 106,312.094737 106,304.814404 L106,60.6878116 C106,53.4121884 112.99183,46 121.624648,46 L452.328333,46.8052632 C460.947044,46.8052632 468,53.4121884 468,60.6878116 Z" id="Path" fill="#FFFFFF" fill-rule="nonzero"></path>
                <path d="M468,59.7262925 L468,71 L106,71 L106,59.7262925 C106,51.5950264 112.59676,45.0026057 120.735975,45.000012 L453.235813,45.000012 C457.148974,44.9950254 460.903639,46.5441881 463.672868,49.3063069 C466.442097,52.0684257 467.998755,55.8169505 468,59.7262925 L468,59.7262925 Z" id="Path" fill="#3F3D56" fill-rule="nonzero"></path>
                <circle id="Oval" fill="#FA5959" fill-rule="nonzero" opacity="0.8" cx="124.5" cy="57.5" r="5.5"></circle>
                <circle id="Oval" fill="#FED253" fill-rule="nonzero" opacity="0.8" cx="138.5" cy="57.5" r="5.5"></circle>
                <circle id="Oval" fill="#8CCF4D" fill-rule="nonzero" opacity="0.8" cx="154.5" cy="57.5" r="5.5"></circle>
                <rect id="Rectangle" fill="#2E855A" fill-rule="nonzero" opacity="0.2" x="237" y="127" width="33" height="15" rx="7.5"></rect>
                <rect id="Rectangle" fill="#2E855A" fill-rule="nonzero" opacity="0.2" x="304" y="127" width="33" height="15" rx="7.5"></rect>
                <polyline id="Path" stroke="#3F3D56" points="255 142.201109 288.003163 185 322 142"></polyline>
                <rect id="Rectangle" fill="#000000" fill-rule="nonzero" opacity="0.1" x="262" y="183" width="50" height="24" rx="8.57"></rect>
                <rect id="Rectangle" fill="#2E855A" fill-rule="nonzero" x="262" y="183" width="49" height="23" rx="8.57"></rect>
                <path d="M255.213886,125 L254.786114,111" id="Path" stroke="#3F3D56"></path>
                <polyline id="Path" stroke="#3F3D56" points="341 112 321.992063 126 302 112"></polyline>
                <rect id="Rectangle" fill="#2E855A" fill-rule="nonzero" opacity="0.2" x="237" y="97" width="33" height="15" rx="7.5"></rect>
                <rect id="Rectangle" fill="#2E855A" fill-rule="nonzero" opacity="0.2" x="323" y="97" width="33" height="15" rx="7.5"></rect>
                <rect id="Rectangle" fill="#2E855A" fill-rule="nonzero" opacity="0.2" x="284" y="97" width="33" height="15" rx="7.5"></rect>
                <path d="M287.063461,206 L286.936539,248" id="Path" stroke="#3F3D56"></path>
                <g id="Group"></g>
                <polyline id="Path" stroke="#3F3D56" points="241 278 287.40625 264 334 277.899445"></polyline>
                <rect id="Rectangle" fill="#2E855A" fill-rule="nonzero" opacity="0.2" x="271" y="248" width="33" height="15" rx="7.5"></rect>
                <path d="M412.5,164 L430.5,164 C434.642136,164 438,167.357864 438,171.5 L438,171.5 C438,175.642136 434.642136,179 430.5,179 L412.5,179 C408.357864,179 405,175.642136 405,171.5 L405,171.5 C405,167.357864 408.357864,164 412.5,164 Z" id="Rectangle" fill="#2E855A" fill-rule="nonzero" opacity="0.2" transform="translate(421.500000, 171.500000) rotate(90.000000) translate(-421.500000, -171.500000) "></path>
                <path d="M412.5,216 L430.5,216 C434.642136,216 438,219.357864 438,223.5 L438,223.5 C438,227.642136 434.642136,231 430.5,231 L412.5,231 C408.357864,231 405,227.642136 405,223.5 L405,223.5 C405,219.357864 408.357864,216 412.5,216 Z" id="Rectangle" fill="#2E855A" fill-rule="nonzero" opacity="0.2" transform="translate(421.500000, 223.500000) rotate(-90.000000) translate(-421.500000, -223.500000) "></path>
                <rect id="Rectangle" fill="#2E855A" fill-rule="nonzero" opacity="0.2" x="317" y="278" width="33" height="15" rx="7.5"></rect>
                <rect id="Rectangle" fill="#2E855A" fill-rule="nonzero" opacity="0.2" transform="translate(240.500000, 285.500000) rotate(-180.000000) translate(-240.500000, -285.500000) " x="224" y="278" width="33" height="15" rx="7.5"></rect>
                <rect id="Rectangle" fill="#2E855A" fill-rule="nonzero" opacity="0.2" transform="translate(288.500000, 285.500000) rotate(-180.000000) translate(-288.500000, -285.500000) " x="272" y="278" width="33" height="15" rx="7.5"></rect>
                <path d="M399,197 L413,223" id="Path" stroke="#3F3D56"></path>
                <path d="M370,195 L385,195" id="Path" stroke="#3F3D56"></path>
                <path d="M311,194 L353,195" id="Path" stroke="#3F3D56"></path>
                <path d="M413,171 L399,197" id="Path" stroke="#3F3D56"></path>
                <path d="M351.5,189 L369.5,189 C373.642136,189 377,192.357864 377,196.5 L377,196.5 C377,200.642136 373.642136,204 369.5,204 L351.5,204 C347.357864,204 344,200.642136 344,196.5 L344,196.5 C344,192.357864 347.357864,189 351.5,189 Z" id="Rectangle" fill="#2E855A" fill-rule="nonzero" opacity="0.2" transform="translate(360.500000, 196.500000) rotate(90.000000) translate(-360.500000, -196.500000) "></path>
                <path d="M382.5,190 L400.5,190 C404.642136,190 408,193.357864 408,197.5 L408,197.5 C408,201.642136 404.642136,205 400.5,205 L382.5,205 C378.357864,205 375,201.642136 375,197.5 L375,197.5 C375,193.357864 378.357864,190 382.5,190 Z" id="Rectangle" fill="#2E855A" fill-rule="nonzero" opacity="0.2" transform="translate(391.500000, 197.500000) rotate(90.000000) translate(-391.500000, -197.500000) "></path>
                <path d="M143.5,164 L161.5,164 C165.642136,164 169,167.357864 169,171.5 L169,171.5 C169,175.642136 165.642136,179 161.5,179 L143.5,179 C139.357864,179 136,175.642136 136,171.5 L136,171.5 C136,167.357864 139.357864,164 143.5,164 Z" id="Rectangle" fill="#2E855A" fill-rule="nonzero" opacity="0.2" transform="translate(152.500000, 171.500000) rotate(90.000000) translate(-152.500000, -171.500000) "></path>
                <path d="M143.5,216 L161.5,216 C165.642136,216 169,219.357864 169,223.5 L169,223.5 C169,227.642136 165.642136,231 161.5,231 L143.5,231 C139.357864,231 136,227.642136 136,223.5 L136,223.5 C136,219.357864 139.357864,216 143.5,216 Z" id="Rectangle" fill="#2E855A" fill-rule="nonzero" opacity="0.2" transform="translate(152.500000, 223.500000) rotate(-90.000000) translate(-152.500000, -223.500000) "></path>
                <path d="M174,197 L160,223" id="Path" stroke="#3F3D56"></path>
                <path d="M206,195 L191,195" id="Path" stroke="#3F3D56"></path>
                <path d="M262,194 L220,195" id="Path" stroke="#3F3D56"></path>
                <path d="M160,171 L174,197" id="Path" stroke="#3F3D56"></path>
                <path d="M204.5,189 L222.5,189 C226.642136,189 230,192.357864 230,196.5 L230,196.5 C230,200.642136 226.642136,204 222.5,204 L204.5,204 C200.357864,204 197,200.642136 197,196.5 L197,196.5 C197,192.357864 200.357864,189 204.5,189 Z" id="Rectangle" fill="#2E855A" fill-rule="nonzero" opacity="0.2" transform="translate(213.500000, 196.500000) rotate(90.000000) translate(-213.500000, -196.500000) "></path>
                <path d="M173.5,190 L191.5,190 C195.642136,190 199,193.357864 199,197.5 L199,197.5 C199,201.642136 195.642136,205 191.5,205 L173.5,205 C169.357864,205 166,201.642136 166,197.5 L166,197.5 C166,193.357864 169.357864,190 173.5,190 Z" id="Rectangle" fill="#2E855A" fill-rule="nonzero" opacity="0.2" transform="translate(182.500000, 197.500000) rotate(90.000000) translate(-182.500000, -197.500000) "></path>
                <path d="M74,281 C74,304.765897 88.7603235,324 107,324" id="Path" fill="#46455B" fill-rule="nonzero"></path>
                <path d="M106,324 C106,300.231179 122.550032,281 143,281" id="Path" fill="#2E855A" fill-rule="nonzero"></path>
                <path d="M86,283 C86,305.660644 95.3946138,324 107,324" id="Path" fill="#2E855A" fill-rule="nonzero"></path>
                <path d="M106,325 C106,294.046232 125.234103,269 149,269" id="Path" fill="#46455B" fill-rule="nonzero"></path>
                <ellipse id="Oval" fill="#2E855A" fill-rule="nonzero" opacity="0.1" cx="106.5" cy="331" rx="8.5" ry="1"></ellipse>
                <path d="M101,324.859516 C101,324.859516 105.573441,324.695344 106.945473,323.562031 C108.317505,322.428718 113.974852,321.067684 114.31786,322.889458 C114.660868,324.711232 121.178021,331.950666 116.023753,331.998328 C110.869486,332.045991 104.032191,331.066258 102.660159,330.097117 C101.288127,329.127975 101,324.859516 101,324.859516 Z" id="Path" fill="#A8A8A8" fill-rule="nonzero"></path>
                <path d="M116.115268,330.380553 C110.957971,330.427278 104.131869,329.472012 102.755675,328.516747 C101.708671,327.795105 101.292613,325.199274 101.150878,324 L101,324 C101,324 101.28804,328.18448 102.664234,329.134554 C104.040427,330.084629 110.86653,331.045086 116.023826,330.998361 C117.514321,330.998361 118.026393,330.380553 117.998961,329.492779 C117.793218,330.037904 117.226281,330.37017 116.115268,330.380553 Z" id="Path" fill="#000000" fill-rule="nonzero" opacity="0.2"></path>
                <path d="M472.998867,351.424264 L459.967095,332.557352 C459.967095,332.557352 459.72219,327.88765 458.869732,326.791939 C458.017274,325.696229 458.686053,323.27438 458.686053,323.27438 C458.686053,323.27438 459.599737,321.938835 458.808506,321.82127 C458.017274,321.703704 458.686053,318.726946 458.686053,318.726946 L458.624827,313.991407 C458.624827,313.991407 459.354832,309.443973 458.74728,308.348263 C458.385,307.744762 458.408931,306.985637 458.808506,306.406081 C458.808506,306.406081 459.538511,303.796127 458.808506,303.114247 C458.0785,302.432367 458.25747,298.383411 458.441148,295.171521 C458.624827,291.959631 457.164816,290.135015 457.164816,289.650645 C457.164816,289.166275 452.351491,284.430736 452.351491,284.007501 C452.351491,283.584265 449.309018,281.825485 447.48165,281.336412 C445.654282,280.84734 444.740597,280.489941 444.801824,280.245404 C444.86305,280.000868 441.938319,279.032128 441.938319,279.032128 C441.938319,279.032128 439.380946,278.853429 438.406036,277.579019 C437.431125,276.304609 434.449878,275.933102 434.369813,275.923696 C434.369813,275.839049 434.327425,275.754402 434.313296,275.669755 L434.25678,275.397003 C434.487556,275.011388 434.699493,274.616368 434.892591,274.20724 L435.06214,273.835733 C436.134,273.839174 437.180542,273.510568 438.057517,272.895209 C438.926514,272.168341 439.455092,271.11448 439.517527,269.984287 C439.568308,268.86375 439.32305,267.749584 438.806361,266.753587 C438.269454,265.657876 437.487642,264.529248 437.756095,263.344187 C437.873838,262.831602 438.179969,262.403663 438.3401,261.881672 C438.575512,260.903544 438.418305,259.872268 437.902096,259.008371 C437.431125,258.128981 436.800024,257.353049 436.286665,256.497172 C435.631037,255.410071 435.194283,254.205615 435.000914,252.951397 C434.960981,252.284194 434.801462,251.62956 434.529943,251.01862 C434.254589,250.587615 433.890061,250.220429 433.460838,249.94172 C431.555474,248.58217 429.254992,247.886454 426.914339,247.961917 C425.256521,248.018348 423.617541,248.465097 421.959723,248.262884 C420.975175,248.089777 420.006455,247.836559 419.06325,247.505762 C417.023945,246.903827 414.66438,246.654588 412.888819,247.820838 C411.113257,248.987088 410.402091,251.281966 409.196405,253.078367 C408.1273,254.667853 406.568386,255.998694 405.758315,257.682233 C405.758315,257.649314 405.758315,257.616396 405.781864,257.583478 C405.578864,257.973492 405.420862,258.385256 405.310893,258.810861 C405.000052,260.132298 405.259086,261.514868 405.579346,262.831602 C405.748896,263.513482 405.974962,264.242388 406.563676,264.628003 C407.15239,265.013617 407.976589,264.924268 408.692466,265.046536 C408.664207,265.164101 408.635949,265.276964 408.6124,265.39453 C407.097254,272.484044 411.304174,279.543077 418.267309,281.595056 C418.267309,281.717325 418.267309,281.844295 418.267309,281.961861 C418.267309,282.323963 418.239051,282.671956 418.201373,283.005843 L418.201373,283.005843 C418.201373,283.005843 412.078748,281.750243 410.435059,282.596715 C408.79137,283.443186 405.560507,284.115661 405.075407,284.600031 C404.590307,285.084401 403.370492,284.722299 402.273129,287.572087 C401.175766,290.421875 401.058023,293.337499 399.654529,294.668341 C398.251035,295.999182 397.52574,296.916193 397.464513,297.884933 C397.403287,298.853673 397.643482,299.098209 397.097156,299.403879 C396.550829,299.70955 395.759598,300.979257 395.999793,301.463627 C395.999793,301.463627 396.305924,302.676903 395.331014,303.283541 C394.744544,303.696979 394.420407,304.388982 394.478556,305.103455 C394.478556,305.103455 394.111199,306.438999 393.258741,306.739967 C392.406283,307.040935 391.845828,309.048953 391.845828,309.048953 L389.085937,312.218519 L383.608542,306.17095 C382.754463,305.230104 381.299049,305.156496 380.354131,306.006358 L377.711983,308.451721 C376.674658,308.701851 375.737261,309.25918 375.022738,310.050611 C374.431936,310.650662 373.953425,311.351421 373.609825,312.119764 L372.140395,313.445903 C371.67564,313.858107 371.401385,314.44321 371.382131,315.063605 C370.991801,315.897962 371.142286,316.884841 371.763618,317.565399 L375.267643,321.440358 L375.267643,321.473276 C374.023026,321.576487 372.839785,322.057275 371.876651,322.851144 C366.639452,327.459712 366.578225,331.706178 367.369457,333.66717 C368.160688,335.628163 374.796672,343.072411 374.796672,343.072411 C374.796672,343.072411 378.653926,348.080701 384.216095,350.742384 L384.216095,350.742384 L384.178417,350.784708 C384.065384,350.902273 383.957061,351.029244 383.848737,351.16562 L383.759253,351.283186 L383.674478,351.400751 L383.575574,351.546532 L383.500219,351.664098 L383.391895,351.838095 C383.37276,351.878807 383.350725,351.918096 383.325959,351.95566 C383.283572,352.030902 383.241185,352.110847 383.203507,352.190791 L383.161119,352.270736 C383.109313,352.374194 383.062216,352.487056 383.010409,352.599919 C382.958602,352.712782 382.977441,352.684567 382.963312,352.722187 C382.949182,352.759808 382.897376,352.882077 382.869117,352.966724 L382.812601,353.12191 C382.784343,353.197152 382.760794,353.277097 382.732536,353.357041 C382.704277,353.436986 382.699568,353.469904 382.680729,353.531038 L382.610083,353.794385 L382.567696,353.958977 C382.530018,354.100055 382.50176,354.245836 382.468792,354.39632 L382.440534,354.570317 C382.440534,354.669072 382.402856,354.77253 382.388727,354.88069 C382.374598,354.98885 382.365178,355.026471 382.355759,355.101713 C382.346339,355.176955 382.355759,355.299223 382.318081,355.402681 C382.280403,355.506139 382.318081,355.557867 382.294533,355.633109 C382.270984,355.708351 382.294533,355.863538 382.294533,355.981103 C382.294533,356.098669 382.294533,356.117479 382.294533,356.192721 C382.294533,356.380826 382.294533,356.578336 382.270984,356.780549 C382.148532,363.876803 382.562986,364.906676 382.562986,364.906676 C382.562986,364.906676 383.424863,367.168637 385.798558,367.328526 C386.146508,367.352884 386.496141,367.333928 386.839404,367.272094 C390.00433,366.726591 397.436255,365.45218 400.054855,365.941253 C401.627898,366.232815 404.54321,365.800174 406.615483,365.409857 L407.166519,365.301697 L407.543296,366.51027 L408.748982,366.181087 L409.77099,366.768914 L410.41622,367.140421 C411.617196,371.208188 416.496458,369.820915 416.496458,369.820915 L417.655047,370.488687 L429.429325,370.789654 C430.748926,371.589093 432.143289,372.25845 433.59271,372.788268 C433.785637,372.844664 433.982385,372.887098 434.181424,372.915239 C435.270272,373.001556 436.363355,373.021971 437.454674,372.976373 C438.358938,372.976373 439.055976,372.915239 439.055976,372.915239 C439.055976,372.915239 438.933523,369.731565 438.763974,366.162276 C443.252329,365.974171 447.241454,365.692014 449.648117,365.273481 C455.893194,364.173068 458.507084,358.454682 459.472575,355.407384 C459.760446,356.646382 459.96499,357.903219 460.084838,359.16948 C460.340992,360.285918 460.666593,361.385328 461.059748,362.461314 C461.404159,363.322851 461.855077,364.138021 462.402016,364.887866 C467.031662,363.312488 464.229384,360.94707 463.254473,359.917196 C462.279563,358.887323 463.923252,358.036148 463.923252,358.036148 C463.923252,358.036148 465.204294,357.184974 465.081842,356.394934 C464.959389,355.604894 464.898163,354.758422 469.037999,354.819556 C473.177836,354.88069 472.998867,351.424264 472.998867,351.424264 Z M408.692466,312.688781 C408.744272,313.036775 409.323567,316.770656 409.846345,317.753503 C409.991063,318.409233 410.037096,319.082837 409.982927,319.752117 C407.529167,319.55931 404.971793,319.451149 404.971793,319.451149 C405.046254,319.540682 405.092181,319.650413 405.103665,319.766225 L404.717469,319.676875 C404.5385,319.634552 404.350112,319.592228 404.157013,319.540499 L408.678336,312.679376 L408.692466,312.688781 Z M399.744014,326.914208 L403.982754,327.586682 L404.340692,327.643114 C404.219626,328.304829 404.145655,328.974277 404.119336,329.64643 C404.119336,329.707564 404.21353,329.782806 404.350112,329.872156 C404.292802,330.202894 404.266001,330.538186 404.270046,330.873814 C404.335982,331.212403 406.323481,331.936606 408.602981,332.538541 C408.570013,332.66081 408.537045,332.773672 408.508787,332.886535 L408.508787,332.886535 C406.49774,331.828446 403.328104,331.334671 402.960747,330.535225 C402.593389,329.73578 391.841118,326.006602 391.841118,326.006602 C391.841118,326.006602 391.445502,325.794984 390.767304,325.470503 L393.59313,326.006602 L394.374943,325.926657 C396.138404,326.370404 397.928661,326.700271 399.734594,326.914208 L399.744014,326.914208 Z" id="Shape" fill="url(#linearGradient-1)" fill-rule="nonzero"></path>
                <path d="M459.958662,352.974734 C459.958662,352.974734 458.262711,363.238873 449.664853,364.760715 C441.066994,366.282557 412.372823,365.974396 412.372823,365.974396 C412.372823,365.974396 395.966031,363.603925 390.032564,349.694003 C384.099097,335.784081 380.28675,330.256143 385.369879,330.004873 C390.453008,329.753604 417.881121,339.301859 419.454246,339.425124 C421.027371,339.548388 461.470374,318.280525 459.958662,352.974734 Z" id="Path" fill="#65617D" fill-rule="nonzero"></path>
                <path d="M459.958662,352.974734 C459.958662,352.974734 458.262711,363.238873 449.664853,364.760715 C441.066994,366.282557 412.372823,365.974396 412.372823,365.974396 C412.372823,365.974396 395.966031,363.603925 390.032564,349.694003 C384.099097,335.784081 380.28675,330.256143 385.369879,330.004873 C390.453008,329.753604 417.881121,339.301859 419.454246,339.425124 C421.027371,339.548388 461.470374,318.280525 459.958662,352.974734 Z" id="Path" fill="#000000" fill-rule="nonzero" opacity="0.05"></path>
                <path d="M382.302608,364.560647 C382.302608,364.560647 383.138859,366.823582 385.444325,366.989626 C385.782588,367.0142 386.122518,366.995074 386.456142,366.932696 C389.537796,366.382381 396.759124,365.106218 399.304838,365.59486 C400.838735,365.88425 403.6709,365.452537 405.689914,365.063521 C407.029764,364.802596 408,364.560647 408,364.560647 C408,364.560647 405.634472,356.495677 405.334161,356.230008 C405.03385,355.964338 394.680047,349.588268 394.680047,349.588268 L386.460762,349 L386.460762,349 C385.361195,349.174108 384.368794,349.77533 383.68866,350.679411 C382.824688,351.756322 382.08084,353.525871 382.030018,356.419772 C381.886793,363.526433 382.302608,364.560647 382.302608,364.560647 Z" id="Path" fill="#3F3D56" fill-rule="nonzero"></path>
                <path d="M381.33844,364.567054 C381.33844,364.567054 382.268696,366.833685 384.833325,367 C383.939268,365.936073 383.112149,364.825474 382.356068,363.673706 L382.402324,357.767159 C382.028034,354.482412 383.363289,351.228535 386,349 L385.964023,349 C385.964023,349 381.158556,349.304118 381.024928,356.43189 C380.8913,363.559662 381.33844,364.567054 381.33844,364.567054 Z" id="Path" fill="#000000" fill-rule="nonzero" opacity="0.05"></path>
                <path d="M417.881741,352 L425.701041,346.0108 L438,334.14811 C438,334.14811 436.670766,334.083312 434.66509,334 C434.192053,334.310105 432.772942,335.286706 432.716178,336.476215 C432.659413,337.929545 429.40492,336.578041 427.692526,337.401903 C425.980132,338.225765 417.711447,348.639753 416.254494,348.565698 C414.79754,348.491643 413.648061,347.843662 413.042573,348.852661 L413,348.91746 L417.881741,352 Z" id="Path" fill="#000000" fill-rule="nonzero" opacity="0.1"></path>
                <path d="M384,350.563792 C384.280152,350.687832 384.565052,350.811872 384.849953,350.927053 C390.813865,353.310396 398.178538,358.307442 398.724596,359.215594 C399.061728,359.769344 403.330484,362.188128 406.625831,364 C408.002849,363.75635 409,363.530419 409,363.530419 C409,363.530419 406.568851,355.999409 406.260209,355.751329 C405.951567,355.503249 395.310541,349.549321 395.310541,349.549321 L386.849003,349 L386.849003,349 C385.719655,349.161457 384.699834,349.721227 384,350.563792 L384,350.563792 Z" id="Path" fill="#000000" fill-rule="nonzero" opacity="0.1"></path>
                <path d="M367.361074,335.038333 C368.143867,336.942557 374.692147,344.262212 374.692147,344.262212 C374.692147,344.262212 378.835798,349.621908 384.723156,352.120623 C390.610514,354.619337 397.875965,359.858278 398.419702,360.81039 C398.766568,361.423458 403.458643,364.224061 406.763251,366.146864 L407.503858,366.574154 L409.144444,367.503044 L410.01161,368 C410.01161,368 412.0225,366.397664 414.028701,364.78604 C416.034903,363.174416 417.970794,361.599947 418.003606,361.534924 C418.059854,361.358435 418.842648,359.333455 418.65984,359.212699 C418.566092,359.152321 418.153602,358.325609 417.398933,357.354919 C416.591361,356.292553 415.542813,355.433396 414.338069,354.846915 C411.57251,353.597558 410.372539,350.75051 410.372539,350.75051 C410.372539,350.75051 410.110046,350.564732 409.711618,350.313931 C408.89276,349.753 407.975556,349.348213 407.006995,349.120307 C405.685152,348.957752 403.224274,346.277904 403.224274,346.277904 C403.224274,346.277904 401.541502,345.205035 400.88058,343.839567 C400.219658,342.474098 390.933944,336.194801 390.071465,335.604956 L412.655297,349.979531 L418.059854,353.421069 L425.812793,347.41115 L438,335.507422 C438,335.507422 436.359414,335.428466 433.978222,335.326289 C428.048677,335.070844 417.525492,334.671421 416.194274,334.968666 C415.119794,335.217809 414.011249,335.289989 412.913103,335.182311 C412.913103,335.182311 409.913175,335.317 407.930411,334.281287 C405.947646,333.245575 402.821158,332.757907 402.46023,331.991573 C402.099301,331.225238 391.468306,327.528256 391.468306,327.528256 C391.468306,327.528256 376.993654,319.911356 371.823466,324.435051 C366.653278,328.958746 366.582967,333.134108 367.361074,335.038333 Z" id="Path" fill="#65617D" fill-rule="nonzero"></path>
                <path d="M414,289.553076 L415.952466,295.653391 L418.456504,309.408006 L427.64774,310 L430.312856,305.837541 L432.968211,301.675082 C432.968211,301.675082 434.622926,296.125136 435.81393,290.741689 C436.863381,285.987236 437.551626,281.371531 436.409433,280.872036 C435.39415,280.40954 434.72543,278.823181 434.291007,277.102698 C434.237314,276.88995 434.183621,276.672577 434.139691,276.459829 C433.834895,275.000174 433.631079,273.523209 433.529545,272.038373 C433.529545,272.038373 414.263583,271.090257 416.933581,278.619683 C417.415209,279.904108 417.661193,281.257184 417.660874,282.620269 C417.65622,282.960307 417.633412,283.299904 417.592538,283.637759 C417.315598,285.997193 416.013811,288.14066 414,289.553076 Z" id="Path" fill="#EE8E9E" fill-rule="nonzero"></path>
                <path d="M411,289.003737 L411.67786,299.507838 L413.205432,308.456469 L414.919177,312.59814 L416.446749,335.264883 C416.446749,335.264883 431.197366,336.937481 434.78716,335.236772 C435.044797,335.128738 435.268765,334.955795 435.436379,334.735461 C439.766091,328.316809 438.348313,309.716774 438.348313,309.716774 L440,297.708741 L438.897284,291.477495 L436.238354,291.196386 L434.190453,290.985555 C434.190453,290.985555 433.713086,291.543087 433.059095,292.391099 C431.245103,294.733673 427.908313,299.362598 428.132675,301.292879 C428.438189,303.935302 427.765103,306.633947 426.700576,307.05561 C425.636049,307.477274 424.791111,308.198786 424.624033,307.477274 C424.456955,306.755761 424.256461,306.577725 424.43786,305.556363 C424.619259,304.535001 423.640658,301.410008 423.640658,301.410008 C423.640658,301.410008 421.988971,297.750908 422.113086,296.186068 C422.237202,294.621229 421.931687,292.826818 421.44,292.405154 C420.948313,291.983491 420.28,291.566513 420.828971,289.645603 C421.377942,287.724692 418.418272,284 418.418272,284 L411,289.003737 Z" id="Path" fill="#E3E8F4" fill-rule="nonzero"></path>
                <path d="M429.025633,315.419953 L429.681774,333.107539 L433.445686,335 C433.718766,334.89356 433.95701,334.725051 434.137432,334.51073 C438.750768,328.182525 437.240117,309.857964 437.240117,309.857964 L439,298.027776 L437.825049,291.888817 L434.991942,291.611871 C436.085511,286.866872 436.802689,282.260345 435.612479,281.761843 C434.554515,281.300267 433.857682,279.717062 433.404995,278 L433.404995,278 L431.370448,290.513321 C431.370448,290.513321 431.538298,291.644182 431.599335,292.8212 C431.681998,293.558188 431.62697,294.302552 431.436571,295.022917 C430.978798,296.089157 431.304325,297.981618 431.304325,297.981618 C430.129374,299.860232 429.539356,303.340513 429.269778,306.700785 C428.883214,311.159608 429.025633,315.419953 429.025633,315.419953 Z" id="Path" fill="#000000" fill-rule="nonzero" opacity="0.1"></path>
                <path d="M433.785844,278 C433.785844,278 436.82145,278.374568 437.784761,279.638734 C438.748073,280.9029 441.276178,281.076137 441.276178,281.076137 C441.276178,281.076137 444.166112,282.012557 444.095626,282.274754 C444.02514,282.536951 444.936761,282.878744 446.741208,283.356318 C448.545655,283.833892 451.562465,285.575632 451.562465,285.99702 C451.562465,286.418409 456.341429,291.095823 456.341429,291.578079 C456.341429,292.060335 457.788746,293.85826 457.605482,297.037404 C457.422218,300.216547 457.243653,304.238468 457.967311,304.898643 C458.690969,305.558819 457.967311,308.138654 457.967311,308.138654 C457.569954,308.710928 457.54605,309.462106 457.906223,310.058313 C458.507705,311.139878 457.788746,315.639372 457.788746,315.639372 L457.845135,320.321468 C457.845135,320.321468 457.182565,323.261825 457.967311,323.383559 C458.752057,323.505294 457.845135,324.825645 457.845135,324.825645 C457.845135,324.825645 457.182565,327.222878 458.028399,328.304443 C458.874233,329.386007 459.113887,334.002554 459.113887,334.002554 L471.998765,352.66539 C471.998765,352.66539 472.182029,356.08332 468.084431,356.027135 C463.986833,355.97095 464.047921,356.804363 464.170097,357.586273 C464.292273,358.368183 463.02822,359.206278 463.02822,359.206278 C463.02822,359.206278 461.402339,360.044374 462.36565,361.079117 C463.328962,362.11386 466.09672,364.440862 461.519816,366 C460.980424,365.256848 460.535333,364.450088 460.194675,363.598085 C459.806378,362.539054 459.484651,361.456956 459.231364,360.358074 C459.231364,360.358074 458.808446,355.797712 457.967311,355.207768 C457.126176,354.617824 457.243653,351.72897 457.243653,351.72897 C457.243653,351.72897 458.451316,349.387922 456.773745,348.428093 C455.096173,347.468263 430.63746,333.965097 430.63746,333.965097 L430.02658,315.999894 C430.02658,315.999894 429.603663,302.740197 432.131768,298.296887 C432.131768,298.296887 431.831027,296.377228 432.253944,295.295664 C432.676861,294.214099 432.192856,290.735302 432.192856,290.735302 L433.785844,278 Z" id="Path" fill="#3F3D56" fill-rule="nonzero"></path>
                <path d="M417.266798,283.696205 C417.266798,283.696205 411.135794,282.449184 409.490078,283.293033 C407.844362,284.136881 404.614764,284.793208 404.124855,285.276077 C403.634945,285.758946 402.422062,285.393278 401.323333,288.220172 C400.224604,291.047065 400.105694,293.925527 398.702554,295.252245 C397.299415,296.578962 396.566929,297.47438 396.505096,298.43543 C396.443263,299.39648 396.690596,299.63557 396.143609,299.940293 C395.596623,300.245016 394.802303,301.501414 395.04488,301.979594 C395.287457,302.457775 407.720696,313.034013 407.720696,313.034013 C407.720696,313.034013 408.334272,317.061047 408.881258,318.083042 C409.428245,319.105036 408.272439,333.159806 407.054799,334.125544 C405.83716,335.091282 415.283378,334.997521 415.283378,334.997521 C415.283378,334.997521 415.706698,325.771441 416.072941,325.29326 C416.439184,324.815079 415.830364,314.979553 415.830364,314.979553 C415.830364,314.979553 415.768531,306.569194 416.56285,304.347059 C417.35717,302.124924 417.266798,294.736559 417.266798,294.736559 C417.266798,294.736559 417.96599,290.301665 418.817386,289.265607 C419.668782,288.229548 417.266798,283.696205 417.266798,283.696205 Z" id="Path" fill="#000000" fill-rule="nonzero" opacity="0.1"></path>
                <path d="M416.265423,283.694313 C416.265423,283.694313 410.134315,282.451814 408.487293,283.291087 C406.840272,284.13036 403.622392,284.786775 403.136854,285.255643 C402.651316,285.724511 401.427951,285.377549 400.32835,288.200132 C399.228749,291.022716 399.109744,293.910941 397.705492,295.233148 C396.30124,296.555355 395.572933,297.455582 395.51105,298.41676 C395.449168,299.377939 395.691937,299.617062 395.144517,299.917137 C394.597096,300.217212 393.802147,301.478467 394.044916,301.9614 C394.287685,302.444334 406.745069,313.036057 406.745069,313.036057 C406.745069,313.036057 407.354371,317.058942 407.906552,318.081073 C408.458732,319.103205 407.292489,333.164549 406.073884,334.125727 C404.855278,335.086906 414.30899,334.997821 414.30899,334.997821 C414.30899,334.997821 414.737406,325.775193 415.10394,325.292259 C415.470474,324.809325 414.856411,314.977169 414.856411,314.977169 C414.856411,314.977169 414.799289,306.565682 415.589478,304.343249 C416.379667,302.120816 416.265423,294.708017 416.265423,294.708017 C416.265423,294.708017 416.965169,290.272528 417.817241,289.241019 C418.669313,288.20951 416.265423,283.694313 416.265423,283.694313 Z" id="Path" fill="#3F3D56" fill-rule="nonzero"></path>
                <path d="M417.25094,278.50973 C417.720307,279.772821 417.960029,281.103422 417.959719,282.443867 C424.127717,284.198992 430.75159,281.697279 434,276.385752 C433.702964,274.950341 433.504337,273.497909 433.405387,272.037735 C433.405387,272.037735 414.629886,271.105368 417.25094,278.50973 Z" id="Path" fill="#000000" fill-rule="nonzero" opacity="0.1"></path>
                <path d="M408,268.502642 C408.001035,275.683494 413.623886,281.606686 420.795232,281.981326 C427.966578,282.355966 434.176051,277.050908 434.925368,269.909256 C435.674685,262.767604 430.701543,256.289333 423.608599,255.167448 C416.515655,254.045564 409.785833,258.672788 408.294368,265.697055 C408.098525,266.619404 407.999864,267.559733 408,268.502642 Z" id="Path" fill="#EE8E9E" fill-rule="nonzero"></path>
                <path d="M398.785855,300 L395.576948,301.010195 C395.576948,301.010195 395.874918,302.196478 394.930583,302.78962 C394.364711,303.196206 394.052841,303.87427 394.11002,304.573679 C394.11002,304.573679 393.75704,305.880445 392.936477,306.177016 C392.115914,306.473587 391.584152,308.433735 391.584152,308.433735 L388.879502,311.580167 C388.879502,311.580167 387.884741,312.409639 388.058939,312.826691 C388.233137,313.243744 387,313.359592 387,313.359592 L387.614276,323.934198 L393.197773,325 L396.663392,324.643188 L399.482646,323.577386 L401.948919,322.089898 L403.067453,319.179796 L408,311.580167 L398.785855,300 Z" id="Path" fill="#3F3D56" fill-rule="nonzero"></path>
                <path d="M387.512019,315.815085 C387.512019,315.815085 380.785999,304.823955 375.771588,310.757996 C370.757177,316.692037 377.810036,326.304404 379.465738,325.992599 C381.12144,325.680794 389,325.178983 389,325.178983 L387.512019,315.815085 Z" id="Path" fill="#EE8E9E" fill-rule="nonzero"></path>
                <path d="M364.065,300.930255 L399.463822,300.952489 C400.313585,300.953023 401.002321,301.641759 401.002854,302.491522 L401.019688,329.317048 C401.020221,330.167566 400.331173,330.85748 399.480654,330.858014 C399.48001,330.858014 399.479365,330.858014 399.478721,330.858014 L364.0799,330.83578 C363.230136,330.835246 362.5414,330.14651 362.540867,329.296747 L362.524034,302.471222 C362.5235,301.620703 363.212549,300.930789 364.063067,300.930255 C364.063711,300.930255 364.064356,300.930255 364.065,300.930255 Z" id="Rectangle" fill="#3F3D56" fill-rule="nonzero" transform="translate(381.771861, 315.894135) rotate(27.040000) translate(-381.771861, -315.894135) "></path>
                <polygon id="Rectangle" fill="#2E855A" fill-rule="nonzero" transform="translate(381.819886, 315.852716) rotate(27.040000) translate(-381.819886, -315.852716) " points="365.641063 303.64549 397.9834 303.665804 397.998708 328.059941 365.656371 328.039627"></polygon>
                <circle id="Oval" fill="#E6E8EC" fill-rule="nonzero" cx="366.5" cy="308.5" r="1"></circle>
                <circle id="Oval" fill="#E6E8EC" fill-rule="nonzero" cx="397" cy="323" r="1"></circle>
                <path d="M382.000149,317.646806 C381.941933,325.411701 398.912112,327.054629 398.912112,327.054629 L403.249259,327.706292 L405.189817,328 L406,320.409493 C406,320.409493 405.112195,320.285585 404.001225,320.042358 C402.356602,319.679813 400.22684,319.051095 399.780512,318.174561 C399.038248,316.706023 382.063218,309.88191 382.000149,317.646806 Z" id="Path" fill="#EE8E9E" fill-rule="nonzero"></path>
                <path d="M409,266.630557 C409.378029,266.660547 409.73263,266.823226 409.999443,267.089068 C410.4643,267.570503 410.4643,268.423332 411.082559,268.716779 C411.305583,268.815091 411.553725,268.843886 411.793791,268.799311 C413.378953,268.579226 414.294722,266.813962 415.814804,266.327941 C416.703262,266.103177 417.642873,266.184048 418.478435,266.557196 C418.818768,266.658925 419.124272,266.850826 419.361663,267.111993 C419.873006,267.763078 419.515066,268.721364 419.752143,269.505417 C420.077543,270.596671 421.397737,271.032256 422.541285,271.174394 C423.684834,271.316532 424.972488,271.394479 425.739502,272.247308 C426.252464,272.896222 426.458929,273.730836 426.306627,274.539859 C426.239335,274.815612 426.239335,275.103179 426.306627,275.378933 C426.62273,276.263857 428.166055,276.130889 428.570481,275.433954 C428.867989,274.929593 428.779667,274.516933 429.472304,274.37021 C429.972307,274.328435 430.474826,274.413675 430.931955,274.617806 C432.14411,275.027874 433.420942,275.220433 434.701945,275.186358 C436.937415,270.499369 436.247194,264.962888 432.927096,260.949715 C429.606997,256.936542 424.246393,255.159083 419.142708,256.379114 C414.039023,257.599144 410.098246,261.600088 409.009297,266.667238 L409,266.630557 Z" id="Path" fill="#000000" fill-rule="nonzero" opacity="0.1"></path>
                <path d="M424.300285,274.381007 C424.234952,274.101807 424.234952,273.81107 424.300285,273.53187 C424.44999,272.717594 424.247046,271.87756 423.742832,271.224432 C422.988898,270.366065 421.723203,270.301457 420.599157,270.144551 C419.47511,269.987646 418.17743,269.563077 417.85758,268.464737 C417.624546,267.675593 417.976382,266.711084 417.473759,266.060387 C417.241612,265.795097 416.941043,265.600175 416.605593,265.497372 C415.78428,265.121801 414.860694,265.040405 413.987387,265.266628 C412.493228,265.755805 411.593077,267.532532 410.034947,267.754046 C409.798975,267.798911 409.555065,267.769929 409.335845,267.670978 C408.746406,267.375626 408.72356,266.517259 408.271199,266.032698 C407.558389,265.271243 406.210447,265.765035 405.337712,265.197405 C404.77112,264.828215 404.551793,264.108295 404.391868,263.448368 C404.085725,262.160817 403.834414,260.813274 404.135988,259.525724 C404.643179,257.324428 406.589699,255.833824 407.832547,253.93711 C408.993148,252.188072 409.660265,249.972932 411.382889,248.809984 C413.105513,247.647035 415.358176,247.914698 417.322972,248.505402 C418.228779,248.827532 419.159558,249.072968 420.105673,249.239167 C421.686649,249.437607 423.276763,249.003808 424.871447,248.94843 C427.121468,248.877077 429.332301,249.554889 431.163366,250.877448 C431.575831,251.150864 431.926229,251.509475 432.191458,251.929639 C432.457035,252.523571 432.611933,253.161859 432.648387,253.812508 C432.836478,255.036033 433.256949,256.211306 433.886666,257.273665 C434.37558,258.104342 434.997005,258.856567 435.440226,259.719548 C435.935135,260.562755 436.085889,261.567326 435.860601,262.520778 C435.709815,263.00534 435.403672,263.443753 435.298578,263.946774 C435.038128,265.100493 435.792062,266.203448 436.308392,267.269484 C436.805974,268.241475 437.042309,269.328321 436.993786,270.421444 C436.934192,271.52224 436.42445,272.54855 435.586444,273.254977 C434.719081,273.87083 433.681107,274.193889 432.620971,274.177952 C431.336484,274.217573 430.055693,274.018924 428.842164,273.591863 C428.392831,273.386407 427.898883,273.300613 427.407406,273.34266 C426.726581,273.481106 426.813398,273.905675 426.520963,274.413311 C426.128003,275.133231 424.610998,275.267063 424.300285,274.381007 Z" id="Path" fill="#3F3D56" fill-rule="nonzero"></path>
                <path d="M418.345592,353 L425.987433,347.021561 L438,335.180185 C438,335.180185 436.382924,335.101643 434.035853,335 C433.569706,335.419962 433.271066,335.994257 433.194973,336.617043 C433.139531,338.063142 429.960821,336.718686 428.288302,337.541068 C426.615783,338.36345 418.525781,348.754107 417.102754,348.689425 C415.679726,348.624743 414.557013,347.968686 413.965626,348.975873 L413.924044,349.040554 C413.681605,349.31383 413.357593,349.501753 413,349.576489 L418.345592,353 Z" id="Path" fill="#000000" fill-rule="nonzero" opacity="0.1"></path>
                <path d="M401,351.765809 L404.97771,364.06994 L405.599976,366 L407.514638,365.498927 L411.688601,364.385431 L430.279969,359.435013 C432.616955,359.337087 434.903822,358.746523 436.981287,357.704455 C440.498022,355.798268 444.52015,354.948795 448.536272,355.264043 C450.991826,355.486742 453.725006,354.461398 455.993881,350.397137 C455.993881,350.397137 461.144322,335.652594 448.13898,331.430589 C435.133638,327.208583 434.516159,333.676139 434.516159,333.676139 L434.339053,333.782849 C433.860388,334.0937 432.424391,335.072649 432.366951,336.265017 C432.309511,337.721841 429.016293,336.367088 427.283523,337.192931 C425.550754,338.018773 417.135814,348.457798 415.661525,348.383565 C414.187235,348.309332 413.024078,347.659793 412.411386,348.671218 L412.368306,348.736172 C411.913574,349.343956 410.54459,349.483143 409.644699,349.51098 C409.166034,349.51098 408.792675,349.51098 408.792675,349.51098 L408.677795,349.543457 L407.720464,349.817191 L401,351.765809 Z" id="Path" fill="#65617D" fill-rule="nonzero"></path>
                <path d="M404,327.704729 L405.410935,328 L406,320.369089 C406,320.369089 405.354497,320.244521 404.546737,320 C404.758377,321.06113 404.275132,325.176471 404,327.704729 Z" id="Path" fill="#000000" fill-rule="nonzero" opacity="0.1"></path>
                <path d="M453.504649,291.185618 C453.504649,291.185618 459.16865,289.556253 457.78116,305.492003 C456.39367,321.427752 445.901964,331.500615 445.901964,331.500615 C445.901964,331.500615 433.846956,336.751313 428.42529,335.908376 C425.319524,335.41127 422.190584,335.068643 419.050229,334.881782 C417.343766,334.026473 415.476353,333.532526 413.566792,333.431365 C410.525718,333.313636 404.129959,331.439396 404.006415,330.836626 C403.882871,330.233855 405.593476,321.361824 404.861717,320.697835 C404.861717,320.697835 413.386228,321.046311 414.236779,321.639664 C415.087329,322.233016 416.30851,321.813902 417.220833,321.639664 C418.133155,321.465425 420.936645,319.054343 426.477102,321.168749 C426.477102,321.168749 428.377774,321.347697 429.095277,320.867364 C429.812781,320.387031 430.995949,320.744926 430.995949,320.744926 C431.466313,320.584484 431.912346,320.361087 432.321667,320.080937 C432.502231,319.84077 433.965748,320.080937 433.965748,320.080937 C434.141613,320.16635 434.347076,320.168115 434.524409,320.085734 C434.701742,320.003353 434.83181,319.845717 434.87807,319.657113 C435.068329,319.162141 435.357647,318.710424 435.72862,318.329134 C435.72862,318.329134 437.372701,309.155718 440.480299,305.718042 C440.480299,305.718042 441.392621,304.931614 441.150285,303.96624 C440.90795,303.000865 446.196568,289.254868 453.504649,291.185618 Z" id="Path" fill="#000000" fill-rule="nonzero" opacity="0.1"></path>
                <path d="M453.506232,290.185618 C453.506232,290.185618 459.168238,288.556253 457.781237,304.492003 C456.394235,320.427752 445.906224,330.500615 445.906224,330.500615 C445.906224,330.500615 433.850712,335.751313 428.435706,334.908376 C423.0207,334.065439 419.040196,333.881782 419.040196,333.881782 C417.335783,333.027103 415.470711,332.533173 413.56344,332.431365 C410.518687,332.313636 404.12993,330.439396 404.00643,329.836626 C403.88293,329.233855 405.588182,320.361824 404.856681,319.697835 C404.856681,319.697835 413.37819,320.046311 414.233191,320.639664 C415.088192,321.233016 416.304193,320.809193 417.216194,320.639664 C418.128195,320.470135 420.930698,318.049634 426.469204,320.168749 C426.469204,320.168749 428.369206,320.347697 429.086457,319.867364 C429.803707,319.387031 430.986459,319.744926 430.986459,319.744926 C431.455476,319.585192 431.899878,319.361733 432.30696,319.080937 C432.48746,318.84077 433.950462,319.080937 433.950462,319.080937 C434.126266,319.16635 434.331655,319.168115 434.508926,319.085734 C434.686196,319.003353 434.816219,318.845717 434.862463,318.657113 C435.05692,318.163179 435.347429,317.711963 435.717464,317.329134 C435.717464,317.329134 437.360965,308.155718 440.467469,304.718042 C440.467469,304.718042 441.38422,303.931614 441.137219,302.96624 C440.890219,302.000865 446.200725,288.254868 453.506232,290.185618 Z" id="Path" fill="#3F3D56" fill-rule="nonzero"></path>
                <path d="M408,349.313093 L417.147728,360 C417.185573,359.968691 417.207199,359.947818 417.207199,359.937381 C417.277483,359.739089 418.174955,357.463947 417.969509,357.328273 C417.764064,357.1926 416.169159,353.847723 412.979348,352.444023 C411.361309,351.679357 410.003268,350.484468 409.065072,349 L408,349.313093 Z" id="Path" fill="#000000" fill-rule="nonzero" opacity="0.1"></path>
                <path d="M408.194027,366.503052 L409.175959,367 C409.175959,367 411.452979,365.39769 413.724692,363.786091 C415.996404,362.174492 418.188501,360.600048 418.225655,360.535026 C418.289348,360.35854 419.17574,358.333591 418.968738,358.212837 C418.862584,358.152461 418.395503,357.325761 417.540956,356.355086 C411.447671,354.859597 415.327629,358.561166 415.84248,358.728363 C415.84248,358.728363 408.411644,357.242162 408.018872,364.301617 C407.965828,365.038977 408.024726,365.779236 408.194027,366.503052 Z" id="Path" fill="#000000" fill-rule="nonzero" opacity="0.1"></path>
                <path d="M416.351208,369.809581 L417.516603,370.479311 L429.328173,370.783302 C430.654219,371.583404 432.055491,372.25313 433.512134,372.782991 C433.705504,372.843566 433.903603,372.888051 434.104384,372.915987 C435.19915,373.000805 436.297989,373.021424 437.395193,372.977735 C438.302673,372.977735 439,372.915987 439,372.915987 C439,372.915987 438.441183,358.096436 438.044758,356.538484 C437.844157,355.792756 436.850705,355.959001 435.876358,356.32949 C435.142726,356.625407 434.435017,356.981281 433.760497,357.393458 C433.760497,357.393458 428.740699,357.868443 427.943072,358.31018 C427.145445,358.751917 424.886297,358.063187 423.477315,358.31018 C422.068332,358.557173 419.560822,356.66198 419.560822,356.66198 C412.702183,354.410548 416.561361,358.609421 417.048535,358.789915 C417.048535,358.789915 410.36184,357.269962 410.013176,364.489743 C409.664513,371.709524 416.351208,369.809581 416.351208,369.809581 Z" id="Path" fill="#3F3D56" fill-rule="nonzero"></path>
                <path d="M432.006242,364.088603 C432.145034,367.163797 434.730678,370.981607 436.272811,373 C437.249495,373 438,372.938115 438,372.938115 C438,372.938115 437.398568,358.085788 436.971911,356.524389 C436.756013,355.777013 435.6868,355.943625 434.63815,356.314933 C433.337617,358.528501 431.893153,361.613216 432.006242,364.088603 Z" id="Path" fill="#565387" fill-rule="nonzero"></path>
                <path d="M432.006242,364.088603 C432.145034,367.163797 434.730678,370.981607 436.272811,373 C437.249495,373 438,372.938115 438,372.938115 C438,372.938115 437.398568,358.085788 436.971911,356.524389 C436.756013,355.777013 435.6868,355.943625 434.63815,356.314933 C433.337617,358.528501 431.893153,361.613216 432.006242,364.088603 Z" id="Path" fill="#000000" fill-rule="nonzero" opacity="0.1"></path>
                <path d="M430.204046,364.486855 C431.0381,367.448672 431.028288,370.771803 432.362775,372.782796 C432.561408,372.843425 432.764898,372.88795 432.971144,372.915912 C434.095705,373.000806 435.224451,373.021443 436.351516,372.977715 C437.283695,372.977715 438,372.915912 438,372.915912 C438,372.915912 437.425974,358.083054 437.01876,356.523702 C436.812699,355.777305 435.792209,355.943699 434.791344,356.314521 C434.037746,356.610703 433.310775,356.966897 432.617897,357.379444 C432.617897,357.379444 429.134494,360.693066 430.204046,364.486855 Z" id="Path" fill="#000000" fill-rule="nonzero" opacity="0.05"></path>
                <path d="M389,335 C389,335 394.955507,337.202643 400,345 L389,335 Z" id="Path" fill="#000000" fill-rule="nonzero" opacity="0.1"></path>
                <g id="Group" opacity="0.1" transform="translate(404.000000, 258.000000)" fill="#000000" fill-rule="nonzero">
                    <path d="M31.7839726,4.44297297 C31.7839726,4.48891892 31.7839726,4.53027027 31.7523288,4.57162162 C31.6961463,4.73887877 31.6312603,4.90298394 31.5579452,5.06324324 C31.6150251,4.85007781 31.6906662,4.64250143 31.7839726,4.44297297 Z" id="Path"></path>
                    <path d="M0.361643836,1.58972973 C0.466521859,1.17662248 0.618221836,0.777283784 0.81369863,0.39972973 C0.782054795,0.500810811 0.754931507,0.601891892 0.727808219,0.707567568 C0.433972603,1.98945946 0.678082192,3.33108108 0.985479452,4.60837838 C1.14369863,5.27 1.36068493,5.98675676 1.92123288,6.35432432 C2.78465753,6.91486486 4.11821918,6.42783784 4.82342466,7.18594595 C5.27547945,7.64540541 5.27547945,8.52297297 5.87671233,8.81702703 C6.09359336,8.91554291 6.33490152,8.94439713 6.56835616,8.89972973 C8.10534247,8.67918919 9.00041096,6.91027027 10.4786301,6.42324324 C11.34262,6.19801439 12.2563534,6.27905281 13.0689041,6.65297297 C13.400476,6.75598254 13.6976734,6.94994039 13.9278082,7.21351351 C14.4205479,7.86135135 14.0769863,8.82162162 14.3030137,9.6072973 C14.6239726,10.7008108 15.9078082,11.1327027 17.0153425,11.2797297 C18.1228767,11.4267568 19.379589,11.5002703 20.1254795,12.3548649 C20.624315,13.0051227 20.8250936,13.8414646 20.6769863,14.6521622 C20.6092289,14.928202 20.6092289,15.2169332 20.6769863,15.492973 C20.9843836,16.3751351 22.4852055,16.2464865 22.8784932,15.5481081 C23.1678082,15.0427027 23.0773973,14.6291892 23.7554795,14.4775676 C24.2419896,14.4395668 24.7300937,14.5264631 25.1749315,14.7302703 C26.378428,15.1487206 27.6466395,15.3417569 28.9179452,15.3 C29.966771,15.315867 30.9936718,14.9942271 31.8517808,14.3810811 C32.226571,14.0790319 32.5346175,13.7001903 32.7558904,13.2691892 C32.5596539,14.0531434 32.1206622,14.7522161 31.5036986,15.2632432 C30.6455896,15.8763892 29.6186888,16.1980291 28.569863,16.1821622 C27.2931443,16.2159329 26.0212295,16.0103391 24.8178082,15.5756757 C24.3732688,15.3711229 23.8845896,15.285706 23.3983562,15.3275676 C22.7247945,15.4654054 22.8106849,15.8881081 22.5213699,16.3935135 C22.1280822,17.0918919 20.6272603,17.2251351 20.319863,16.342973 C20.2552267,16.065 20.2552267,15.7755406 20.319863,15.4975676 C20.4679704,14.68687 20.2671917,13.8505281 19.7683562,13.2002703 C19.0224658,12.3456757 17.770274,12.2813514 16.6582192,12.1251351 C15.5461644,11.9689189 14.2623288,11.5462162 13.9458904,10.4527027 C13.7153425,9.66702703 14.0634247,8.70675676 13.5661644,8.05891892 C13.3357243,7.7957086 13.0386347,7.60182107 12.7072603,7.49837838 C11.8947096,7.12445821 10.9809762,7.04341979 10.1169863,7.26864865 C8.63876712,7.75567568 7.74369863,9.52459459 6.20671233,9.74513514 C5.97325769,9.78980253 5.73194952,9.76094832 5.51506849,9.66243243 C4.93191781,9.36837838 4.90931507,8.51378378 4.46178082,8.03135135 C3.75657534,7.27324324 2.4230137,7.76486486 1.55958904,7.19972973 C0.999041096,6.83216216 0.782054795,6.11540541 0.623835616,5.45837838 C0.311917808,4.21324324 0.0678082192,2.87162162 0.361643836,1.58972973 Z" id="Path"></path>
                </g>
                <path d="M439.15228,308.759601 C437.976359,310.17879 436.65032,311.490533 435.594493,312.990307 C434.538666,314.490081 433.823105,316.24504 434.038274,318 C435.114116,317.015074 435.604501,315.649608 436.285034,314.41845 C437.430932,312.323243 439.147276,310.545899 440.598413,308.598431 C440.873629,308.231322 442.645017,306.104777 441.749315,306.001807 C441.008735,305.925699 439.552594,308.276092 439.15228,308.759601 Z" id="Path" fill="#000000" fill-rule="nonzero" opacity="0.1"></path>
            </g>
        </g>
    </g>
</svg>